<svg width="111" height="33" viewBox="0 0 111 33" fill="none" xmlns="http://www.w3.org/2000/svg">
<path d="M109.295 28.3409C109.295 29.1578 108.965 29.9412 108.379 30.5185C107.793 31.0959 106.998 31.4197 106.169 31.4188H3.8797C2.15333 31.4206 0.752249 30.0428 0.75 28.3411V3.79694C0.752248 2.09461 2.15267 0.715652 3.8797 0.71521H106.168C106.997 0.715157 107.793 1.03984 108.379 1.61781C108.965 2.19577 109.294 2.97965 109.294 3.79694L109.295 28.3409Z" fill="white"/>
<path d="M106.168 32.1348H3.87873C1.75216 32.1344 0.0273703 30.4371 0.0234375 28.3409V3.79794C0.0264702 1.70077 1.75113 0.00176931 3.87873 0H106.167C108.295 0.00265201 110.019 1.70114 110.023 3.79794V28.3409C110.024 30.4337 108.292 32.1348 106.168 32.1348H106.168Z" fill="#A6A6A6"/>
<path d="M109.295 28.3409C109.295 29.1578 108.965 29.9412 108.379 30.5185C107.793 31.0959 106.998 31.4197 106.169 31.4188H3.8797C2.15333 31.4206 0.752249 30.0428 0.75 28.3411V3.79694C0.752248 2.09461 2.15267 0.715652 3.8797 0.71521H106.168C106.997 0.715157 107.793 1.03984 108.379 1.61781C108.965 2.19577 109.294 2.97965 109.294 3.79694L109.295 28.3409Z" fill="black"/>
<path fill-rule="evenodd" clip-rule="evenodd" d="M23.0396 4.99597C23.1749 6.20846 22.6874 7.40347 21.9749 8.28176C21.2314 9.14659 20.0419 9.80776 18.8835 9.7226C18.7319 8.55591 19.3188 7.3151 19.9759 6.55813C20.7186 5.69892 22.0083 5.04096 23.0396 4.99597ZM26.8328 11.9911C26.7032 12.0673 24.561 13.3279 24.5845 15.8984C24.6122 19.0018 27.3402 20.0287 27.3728 20.0399C27.3565 20.1124 26.9454 21.5218 25.9224 22.9514C25.0679 24.2106 24.1728 25.4426 22.7509 25.4643C22.0751 25.4795 21.6187 25.2882 21.1432 25.0888C20.647 24.8807 20.13 24.6639 19.3212 24.6639C18.4641 24.6639 17.9243 24.8877 17.4038 25.1035C16.9534 25.2903 16.5174 25.471 15.9028 25.4956C14.5486 25.5446 13.5142 24.152 12.6287 22.9032C10.8589 20.3551 9.48108 15.7224 11.3285 12.5698C12.2235 11.0239 13.8558 10.0281 15.6005 10.0016C16.3688 9.98603 17.1056 10.2779 17.7516 10.5338C18.2455 10.7294 18.6862 10.904 19.0472 10.904C19.3644 10.904 19.7929 10.7364 20.2923 10.541C21.0792 10.2331 22.0423 9.85638 23.0233 9.95824C23.6943 9.97752 25.6036 10.2193 26.8354 11.9896L26.8328 11.9911Z" fill="white"/>
<path d="M106.168 0H51.3788L72.8387 32.1348H106.168C108.295 32.1331 110.019 30.4351 110.023 28.3387V3.79777C110.02 1.70085 108.295 0.00221176 106.168 0Z" fill="url(#paint0_linear_9_93678)"/>
<path fill-rule="evenodd" clip-rule="evenodd" d="M57.9804 10.7947H57.1251V5.26587H57.9804V10.7947ZM36.8827 10.8413C36.3991 10.8413 35.9809 10.818 35.6328 10.7786V5.60832C36.1197 5.5342 36.6117 5.49766 37.1044 5.49906C39.0978 5.49906 40.0157 6.46572 40.0157 8.04153C40.0157 9.85916 38.9314 10.8413 36.8827 10.8413ZM70.8351 24.5385C71.4766 23.9671 71.7995 23.227 71.7995 22.3166C71.7995 21.5781 71.5795 20.9585 71.1366 20.4618C70.6972 19.9651 70.0107 19.5329 69.0766 19.1615C68.3151 18.8659 67.7885 18.5901 67.4999 18.3371C67.1672 18.0623 67.0002 17.7119 67.0002 17.2901C67.0002 16.9075 67.1469 16.5853 67.4361 16.3208C67.7804 16.0252 68.2611 15.8766 68.8743 15.8766C69.6504 15.8766 70.3442 16.0404 70.959 16.3682L71.3951 14.9718C70.742 14.6333 69.9195 14.4636 68.9323 14.4636C67.8268 14.4636 66.9383 14.7442 66.2681 15.3052C65.5979 15.8669 65.262 16.5851 65.262 17.4628C65.262 18.8064 66.2125 19.8277 68.112 20.5261C68.8107 20.7791 69.3082 21.0549 69.6088 21.3505C69.9081 21.6472 70.0606 22.0111 70.0606 22.4459C70.0606 22.9311 69.8765 23.3202 69.5119 23.611C69.1485 23.9012 68.6388 24.0472 67.9833 24.0472C67.0719 24.0472 66.2345 23.8257 65.4722 23.3804L65.0703 24.8084C65.7764 25.2529 66.7124 25.4744 67.8798 25.4744C69.1434 25.4744 70.1291 25.1619 70.8351 24.5385ZM43.7746 25.3162H41.9231L40.9089 22.175H37.3838L36.4176 25.3162H34.6152L38.1085 14.6221H40.2658L43.7746 25.3162ZM40.6033 20.8572L39.686 18.0647C39.589 17.7795 39.4063 17.1075 39.139 16.0501H39.1065C38.9987 16.505 38.8268 17.1768 38.5911 18.0645L37.6895 20.8572H40.6033ZM51.6568 24.4749C52.38 23.7139 52.7411 22.6774 52.7411 21.3659C52.7411 20.192 52.4321 19.2452 51.8165 18.5246C51.2003 17.8052 50.4299 17.446 49.5071 17.446C48.3265 17.446 47.4469 17.9066 46.8671 18.8274H46.8345L46.7376 17.6051H45.209C45.2514 18.4713 45.2734 19.3159 45.2734 20.1397V28.4432H47.0114V24.397C47.464 25.1267 48.2091 25.4908 49.2452 25.4908C50.2048 25.4908 51.0094 25.1524 51.6568 24.4749ZM50.9696 21.4285C50.9696 20.6779 50.7985 20.0591 50.4542 19.5715C50.0786 19.0644 49.5738 18.8103 48.9413 18.8103C48.5123 18.8103 48.1226 18.9519 47.7747 19.2307C47.4257 19.5118 47.1974 19.8794 47.0906 20.3341C47.0429 20.5042 47.0158 20.6793 47.0098 20.8557V22.1421C47.0098 22.7024 47.1843 23.1756 47.5333 23.5628C47.8822 23.9485 48.3355 24.1423 48.893 24.1423C49.5477 24.1423 50.0574 23.8924 50.4218 23.3965C50.7868 22.8991 50.9696 22.2433 50.9696 21.4285ZM60.6537 24.4749C61.3769 23.7139 61.738 22.6774 61.738 21.3659C61.738 20.192 61.4282 19.2452 60.8134 18.5246C60.1954 17.8052 59.425 17.446 58.503 17.446C57.3217 17.446 56.4419 17.9066 55.8632 18.8274H55.8306L55.7337 17.6051H54.2051C54.2474 18.4713 54.2694 19.3159 54.2694 20.1397V28.4432H56.0074V24.397C56.4601 25.1267 57.2052 25.4908 58.2413 25.4908C59.2017 25.4908 60.0055 25.1524 60.6537 24.4749ZM59.9663 21.4285C59.9663 20.6779 59.7941 20.0591 59.4501 19.5715C59.0742 19.0644 58.5713 18.8103 57.9386 18.8103C57.5098 18.8103 57.1201 18.9519 56.7704 19.2307C56.4214 19.5118 56.1939 19.8794 56.0873 20.3341C56.0344 20.5462 56.0059 20.7189 56.0059 20.8557V22.1421C56.0059 22.7024 56.181 23.1756 56.5284 23.5628C56.8773 23.9479 57.3305 24.1423 57.8897 24.1423C58.5452 24.1423 59.0549 23.8924 59.4183 23.3965C59.7835 22.8991 59.9663 22.2433 59.9663 21.4285ZM77.5611 18.8907H75.6453V22.6347C75.6453 23.5869 75.9828 24.0618 76.6595 24.0618C76.9702 24.0618 77.2278 24.0361 77.4315 23.9823L77.4796 25.2834C77.1374 25.4095 76.6864 25.473 76.128 25.473C75.4416 25.473 74.905 25.2665 74.5178 24.8534C74.1322 24.4402 73.9382 23.7485 73.9382 22.7746V18.8873H72.7969V17.6017H73.9382V16.1898L75.6453 15.6819V17.6019H77.5611V18.8907ZM85.1576 24.3167C85.8439 23.5557 86.1879 22.5824 86.1879 21.3974V21.3972C86.1879 20.2434 85.8561 19.303 85.1894 18.575C84.4915 17.8244 83.5693 17.4482 82.4214 17.4482C81.2304 17.4482 80.2831 17.8292 79.5796 18.591C78.8776 19.352 78.5254 20.3307 78.5254 21.5258C78.5254 22.6677 78.8662 23.6145 79.5478 24.3657C80.2292 25.1154 81.1432 25.4908 82.2927 25.4908C83.4837 25.4908 84.4393 25.1001 85.1576 24.3167ZM84.3868 21.4365C84.3868 20.7302 84.2319 20.1244 83.9211 19.6173C83.5567 19.0049 83.035 18.6989 82.3591 18.6989C81.6628 18.6989 81.1287 19.0049 80.7653 19.6173C80.4538 20.1244 80.2988 20.7406 80.2988 21.4687C80.2988 22.1758 80.4538 22.7834 80.7653 23.2889C81.1411 23.9013 81.6653 24.2074 82.3444 24.2074C83.0089 24.2074 83.53 23.8949 83.9064 23.2734C84.2262 22.7545 84.3868 22.1447 84.3868 21.4365ZM91.2915 19.0644C91.4752 19.0638 91.6586 19.0796 91.8394 19.1118L91.8378 17.4773C91.7089 17.4572 91.564 17.446 91.4033 17.446C90.9504 17.4466 90.5097 17.5915 90.1471 17.8589C89.7509 18.1652 89.4622 18.5741 89.2779 19.0813H89.2298L89.1662 17.6059H87.6523C87.6875 18.4146 87.7044 19.224 87.7028 20.0335V25.3164H89.4408V21.2702C89.4408 20.6573 89.5861 20.1491 89.8747 19.7475C90.2074 19.2909 90.6804 19.0644 91.2915 19.0644ZM99.6126 21.0959C99.6171 21.3564 99.5958 21.6166 99.5492 21.873H94.3348C94.3544 22.6348 94.6072 23.2182 95.0914 23.6199C95.5308 23.9784 96.0991 24.1584 96.7968 24.1584C97.5688 24.1584 98.2732 24.0379 98.9067 23.7944L99.1791 24.9828C98.4388 25.3012 97.5647 25.4594 96.5564 25.4594C95.3433 25.4594 94.391 25.1074 93.698 24.405C93.0067 23.7021 92.6602 22.7569 92.6602 21.5731C92.6602 20.4113 92.9822 19.443 93.6271 18.6707C94.3022 17.8461 95.2144 17.434 96.3623 17.434C97.4898 17.434 98.3433 17.8461 98.923 18.6707C99.382 19.3239 99.6128 20.1341 99.6128 21.0959H99.6126ZM97.6181 19.3343C97.8536 19.7048 97.9677 20.1429 97.9555 20.6514L94.3359 20.6498C94.3888 20.1332 94.561 19.688 94.8502 19.3174C95.2024 18.8515 95.6654 18.6193 96.2338 18.6193C96.8543 18.6193 97.3173 18.8571 97.6181 19.3343ZM36.4863 6.21665C36.6761 6.17789 36.9053 6.16182 37.1742 6.16182C38.4404 6.16182 39.1131 6.84087 39.1131 8.0648C39.1131 9.43716 38.3695 10.1702 37.0634 10.1702C36.7861 10.1702 36.589 10.163 36.4863 10.1469V6.21665ZM42.8771 10.8807C41.7536 10.8807 41.0254 10.0538 41.0254 8.93109C41.0254 7.76118 41.7689 6.92688 42.9406 6.92688C44.0477 6.92688 44.7921 7.71459 44.7921 8.86923C44.7921 10.0538 44.0249 10.8807 42.8771 10.8807ZM41.8965 8.90701C41.8965 8.11147 42.2919 7.54268 42.9091 7.54268V7.54248C43.51 7.54248 43.9052 8.1197 43.9052 8.89094C43.9052 9.64791 43.5015 10.2563 42.9007 10.2563C42.3 10.2563 41.8965 9.68728 41.8965 8.90701ZM51.1976 7.00496L49.9949 10.7947H49.2114L48.7134 9.14896C48.5895 8.74637 48.4864 8.33787 48.4044 7.92502H48.3881C48.3253 8.33795 48.2064 8.75189 48.0799 9.14896L47.55 10.7947H46.7584L45.6269 7.00476H46.5048L46.9401 8.80652C47.043 9.23572 47.1294 9.64062 47.2011 10.0232H47.2174C47.2801 9.70409 47.3828 9.30561 47.5337 8.81455L48.0799 7.00576H48.7761L49.2988 8.77599C49.42 9.18741 49.523 9.60382 49.6076 10.024H49.6305C49.6861 9.63439 49.773 9.22046 49.8914 8.77599L50.3585 7.00576L51.1976 7.00496ZM54.7699 10.7947H55.6242L55.6251 8.52519C55.6251 7.53524 55.0952 6.92668 54.2882 6.92668C53.7654 6.92668 53.2992 7.18396 53.0694 7.58886H53.0456L53.0056 7.00401H52.254C52.2776 7.39364 52.2857 7.75295 52.2857 8.08796V10.7947H53.1403V8.54066C53.1403 8.04156 53.4884 7.61236 53.9946 7.61236C54.5092 7.61236 54.7699 7.94837 54.7699 8.61858V10.7947ZM59.2441 8.93109C59.2441 10.0538 59.9732 10.8807 61.0958 10.8807C62.2429 10.8807 63.0108 10.0538 63.01 8.86923C63.01 7.71459 62.2665 6.92688 61.1586 6.92688C59.9877 6.92688 59.2441 7.76118 59.2441 8.93109ZM61.1276 7.54268C60.5104 7.54268 60.1152 8.11147 60.1152 8.90701C60.1152 9.68728 60.5194 10.2563 61.1187 10.2563C61.7202 10.2563 62.1229 9.64791 62.1229 8.89094C62.124 8.1197 61.7292 7.54248 61.1276 7.54248V7.54268ZM66.3155 10.3583L66.3774 10.7947L67.1478 10.7955C67.1095 10.5696 67.0924 10.2731 67.0924 9.89072V8.49486C67.0924 7.44927 66.5852 6.92688 65.581 6.92688C65.0599 6.92688 64.6164 7.03634 64.261 7.25486L64.4347 7.80838C64.7272 7.62119 65.0601 7.5272 65.439 7.5272C65.969 7.5272 66.2371 7.77725 66.2371 8.27614V8.34603C64.813 8.34603 63.9902 8.82987 63.9902 9.76519C63.9902 10.4049 64.4795 10.8805 65.1683 10.8805C65.651 10.8805 66.0318 10.7096 66.2927 10.3583H66.3155ZM66.2609 8.90697C65.312 8.90697 64.836 9.13372 64.836 9.67118C64.836 10.0688 65.0812 10.2635 65.422 10.2635C65.8565 10.2635 66.2609 9.93649 66.2609 9.49203V8.90697ZM71.2015 10.1862L71.2414 10.7947L72.002 10.7945C71.9792 10.4826 71.9703 10.1396 71.9703 9.77302V5.26611H71.1149V7.44124H71.0978C70.8925 7.0974 70.528 6.92608 70.0135 6.92608C69.0418 6.92608 68.3301 7.76118 68.3301 8.94656C68.3301 10.0771 69.0166 10.8807 69.9434 10.8807C70.5199 10.8807 70.9324 10.6461 71.1779 10.1862H71.2015ZM71.1159 8.56469C71.1159 8.03426 70.7594 7.58176 70.2157 7.58176C69.5822 7.58176 69.1952 8.13549 69.1952 8.91496C69.1952 9.67916 69.5969 10.2024 70.1986 10.2024C70.7358 10.2024 71.1157 9.74183 71.1157 9.19614L71.1159 8.56469ZM75.543 8.93109C75.543 10.0538 76.271 10.8805 77.3936 10.8805V10.8807C78.5423 10.8807 79.3094 10.0538 79.3088 8.86923C79.3088 7.71459 78.5653 6.92688 77.4572 6.92688C76.2865 6.92688 75.543 7.76118 75.543 8.93109ZM77.4259 7.54248C76.8094 7.54248 76.4141 8.11147 76.4141 8.90701C76.4141 9.68728 76.8176 10.2563 77.4177 10.2563C78.0194 10.2563 78.422 9.64791 78.422 8.89094C78.4238 8.1197 78.0284 7.54248 77.4259 7.54248ZM83.0472 10.7947H83.9023V8.52433C83.9023 7.53418 83.3717 6.92603 82.5646 6.92603C82.0427 6.92603 81.5756 7.18391 81.3465 7.58881H81.3228L81.2829 7.00395H80.5312C80.5549 7.39359 80.563 7.75289 80.563 8.0879V10.7947H81.4184V8.5406C81.4184 8.04151 81.7657 7.6123 82.2719 7.6123C82.7865 7.6123 83.0472 7.94831 83.0472 8.61853V10.7947ZM89.6505 7.63644H88.7104V9.47676C88.7104 9.94533 88.875 10.1791 89.2076 10.1791C89.3584 10.1791 89.4849 10.163 89.5867 10.1397L89.6104 10.7794C89.4449 10.8421 89.2233 10.8734 88.9477 10.8734C88.2743 10.8734 87.8715 10.5069 87.8715 9.54746V7.63644H87.3105V7.00499H87.8715V6.31047L88.7104 6.06042V7.00398H89.6503L89.6505 7.63644ZM93.3199 10.7947H94.1734V8.54061C94.1734 7.54965 93.6762 6.92603 92.8626 6.92603C92.3653 6.92603 91.9755 7.12949 91.7066 7.54242H91.6895V5.26587H90.8359V10.7947H91.6895V8.51008C91.6895 7.90976 92.102 7.61312 92.5446 7.61312C93.0598 7.61312 93.3199 7.95636 93.3199 8.6346V10.7947ZM98.8093 9.10218H96.2452C96.2615 9.81979 96.7433 10.2249 97.4567 10.2249C97.8358 10.2249 98.1847 10.1622 98.4929 10.0457L98.6257 10.6308C98.2621 10.7867 97.8341 10.8646 97.3361 10.8646C96.1336 10.8646 95.4219 10.1154 95.4219 8.95456C95.4219 7.79249 96.1507 6.91882 97.2399 6.91882C98.2222 6.91882 98.8386 7.63643 98.8386 8.72038C98.8441 8.84834 98.8343 8.9765 98.8093 9.10218ZM97.1805 7.50391C97.7264 7.50391 98.0258 7.91704 98.0258 8.50209H96.2461C96.3015 7.92507 96.6896 7.50391 97.1805 7.50391Z" fill="white"/>
<defs>
<linearGradient id="paint0_linear_9_93678" x1="186.45" y1="32.2201" x2="186.45" y2="-83.6736" gradientUnits="userSpaceOnUse">
<stop stop-color="#1A1A1A" stop-opacity="0.1"/>
<stop offset="0.123" stop-color="#212121" stop-opacity="0.151"/>
<stop offset="0.308" stop-color="#353535" stop-opacity="0.227"/>
<stop offset="0.532" stop-color="#575757" stop-opacity="0.318"/>
<stop offset="0.783" stop-color="#858585" stop-opacity="0.421"/>
<stop offset="1" stop-color="#B3B3B3" stop-opacity="0.51"/>
</linearGradient>
</defs>
</svg>
