<svg width="13" height="12" viewBox="0 0 13 12" fill="none" xmlns="http://www.w3.org/2000/svg">
<g clip-path="url(#clip0_14_87)">
<path d="M3.18612 6.39119H4.50151V11.8065C4.50151 11.9134 4.58813 12 4.69505 12H6.92534C7.03226 12 7.11889 11.9134 7.11889 11.8065V6.41672H8.63105C8.72937 6.41672 8.81211 6.34294 8.82333 6.24527L9.053 4.25166C9.0593 4.19681 9.04194 4.14187 9.00523 4.10072C8.96851 4.05954 8.91594 4.03596 8.86076 4.03596H7.11898V2.78625C7.11898 2.40954 7.32181 2.2185 7.72194 2.2185C7.77896 2.2185 8.86076 2.2185 8.86076 2.2185C8.96769 2.2185 9.05431 2.13183 9.05431 2.02495V0.194977C9.05431 0.0880547 8.96769 0.00142969 8.86076 0.00142969H7.29127C7.28021 0.000890625 7.25562 0 7.21939 0C6.94707 0 6.0005 0.0534609 5.25277 0.741328C4.4243 1.50361 4.53948 2.41629 4.56699 2.57454V4.03591H3.1861C3.07918 4.03591 2.99255 4.12254 2.99255 4.22946V6.19762C2.99258 6.30452 3.0792 6.39119 3.18612 6.39119Z" fill="white"/>
</g>
<defs>
<clipPath id="clip0_14_87">
<rect width="12" height="12" fill="white" transform="translate(0.0234375)"/>
</clipPath>
</defs>
</svg>
