<svg width="2534" height="486" viewBox="0 0 2534 486" fill="none" xmlns="http://www.w3.org/2000/svg">
<path d="M632.276 469.004C576.322 463.427 521.365 456.657 467.95 449.119C356.585 433.388 249.392 412.465 149.092 386.618C146.099 385.849 143.197 385.08 140.204 384.311V56H2393.8V382.926C1737.67 535.427 1517.3 446.004 1396.68 416.388C1320.69 397.734 1243.69 380.695 1154.27 376.888C1095.15 374.349 1031.94 375.388 974.622 383.657C942.519 388.272 909.599 395.849 884.388 405.503C861.535 414.234 836.142 439.58 890.646 440.004C903.342 440.119 915.494 437.85 926.739 435.311C999.018 418.811 1077.1 406.619 1160.53 407.734C1320.6 414.465 1301.1 466.542 1140.58 479.081C973.988 492.081 798.96 485.658 632.276 469.004Z" fill="url(#paint0_linear_9_93502)"/>
<path d="M632.276 469.004C576.322 463.427 521.365 456.657 467.95 449.119C356.585 433.388 249.392 412.465 149.092 386.618C146.099 385.849 143.197 385.08 140.204 384.311V56H2393.8V382.926C1737.67 535.427 1517.3 446.004 1396.68 416.388C1320.69 397.734 1243.69 380.695 1154.27 376.888C1095.15 374.349 1031.94 375.388 974.622 383.657C942.519 388.272 909.599 395.849 884.388 405.503C861.535 414.234 836.142 439.58 890.646 440.004C903.342 440.119 915.494 437.85 926.739 435.311C999.018 418.811 1077.1 406.619 1160.53 407.734C1320.6 414.465 1301.1 466.542 1140.58 479.081C973.988 492.081 798.96 485.658 632.276 469.004Z" fill="url(#paint1_linear_9_93502)"/>
<path opacity="0.3" d="M27.2628 120.53C108.6 104.334 208.071 126.216 276.822 144.537C342.595 162.111 405.661 182.844 479.961 192.378C517.043 197.145 563.192 197.834 588.094 185.256C610.83 173.713 604.199 155.621 583.222 143.503C562.38 131.385 530.712 123.632 500.802 115.534C441.119 99.3952 383.196 79.5811 353.693 52.3008C339.482 39.2062 333.392 22.7231 353.693 11.1218C379.406 -3.63826 434.759 -2.43218 471.164 7.56103C507.569 17.4968 531.659 33.5778 561.027 47.0744C628.965 78.0878 725.866 95.0304 823.037 104.622C920.208 114.213 1020.36 117.486 1118.07 126.159C1290.49 141.493 1455.33 174.287 1586.6 224.138C1698.66 266.695 1793.53 323.094 1937.8 340.898C2113.73 362.607 2294.27 319.131 2475.76 308.736C2498.36 307.415 2528.54 308.793 2533.41 318.212C2537.6 326.31 2518.66 332.915 2501.88 337.28C2309.43 387.475 2094.38 435.719 1869.99 424.577C1580.65 410.219 1354.23 300.753 1064.48 287.601C904.238 280.364 740.888 303.739 582.545 290.932C474.006 282.145 377.241 256.989 283.318 232.351C212.537 213.8 141.892 195.25 71.1116 176.699C33.3529 166.763 -26.1948 145.513 13.0526 125.412" fill="#F20000"/>
<defs>
<linearGradient id="paint0_linear_9_93502" x1="158.202" y1="92.5001" x2="2317.71" y2="625.998" gradientUnits="userSpaceOnUse">
<stop stop-color="#B00000"/>
<stop offset="0.34375" stop-color="#CC0000"/>
<stop offset="0.703125" stop-color="#CF0000"/>
<stop offset="1" stop-color="#A60000"/>
</linearGradient>
<linearGradient id="paint1_linear_9_93502" x1="1691.11" y1="56" x2="1689.2" y2="458.013" gradientUnits="userSpaceOnUse">
<stop stop-color="#BF0201"/>
<stop offset="1" stop-color="#CE0100"/>
</linearGradient>
</defs>
</svg>
