<svg width="59" height="40" viewBox="0 0 59 40" fill="none" xmlns="http://www.w3.org/2000/svg">
<path d="M57.336 24.8005C57.0682 24.599 56.7781 24.3976 56.488 24.1961C56.0193 23.8604 55.5284 23.5246 55.082 23.1665C54.9704 23.077 54.8589 22.8531 54.8365 22.6964C54.8142 20.9058 54.8142 19.0704 54.8142 17.3021C54.8142 16.653 54.8142 16.0039 54.8142 15.3548C54.8142 13.5193 53.8323 12.5569 52.0024 12.5345C50.9089 12.5345 49.8377 12.5345 48.7442 12.5345H46.1108C45.8653 11.281 45.2851 10.7438 44.147 10.7438C42.317 10.7215 40.4871 10.7215 38.6125 10.7438C38.1662 10.7438 37.8091 10.8781 37.586 11.1244C37.3851 11.3258 37.2735 11.6168 37.2735 11.9525C37.2735 12.2883 37.4074 13.0941 38.6348 13.0941C39.7506 13.0941 40.8665 13.0941 42.0046 13.0941H43.6337L38.0323 34.0447H25.9368C25.7583 32.4779 24.9772 31.6273 24.33 31.1796C23.2811 30.4634 21.8529 30.3067 20.4693 30.7544C18.8402 31.2692 17.5904 32.3212 16.7424 33.888C16.6978 33.9775 16.6308 34.0447 16.5862 34.0895C15.7382 34.1118 14.9125 34.1118 14.0198 34.1118H13.6404C13.6628 34.0223 13.6851 33.9104 13.7074 33.8209L14.1537 32.1421C14.4661 30.9334 14.8009 29.7247 15.1133 28.5161C15.2249 28.1132 15.1803 27.7326 15.0017 27.4417C14.8455 27.1954 14.6 27.0164 14.3099 26.9492C13.6404 26.7926 13.0825 27.1507 12.8594 27.9117C12.7924 28.1579 12.7255 28.4041 12.6585 28.6504L12.2345 30.2619C11.8998 31.4706 11.5873 32.6793 11.2526 33.888C11.0741 34.6043 11.1633 35.231 11.4981 35.6787C11.8551 36.1487 12.4354 36.3949 13.1941 36.4173C13.395 36.4173 13.5735 36.4173 13.7743 36.4173H14.0421H16.2068V36.4397C16.4077 38.3646 17.5458 39.6181 19.4427 39.9315C19.6659 39.9762 19.9114 39.9986 20.1568 39.9986C22.1207 39.9986 24.2184 38.7228 25.245 36.7978C25.4235 36.4621 25.5797 36.3949 25.9368 36.4173C30.6232 36.4173 35.3989 36.4173 39.9961 36.4173H43.9461C44.08 37.626 44.5933 38.5885 45.419 39.2376C46.267 39.8867 47.3605 40.1329 48.5656 39.9315C50.5295 39.6181 52.0247 38.5213 53.0289 36.7083C53.1628 36.4621 53.2298 36.4173 53.4752 36.3949C55.0597 36.2159 56.1755 35.3205 56.6219 33.8656C57.2467 31.7392 57.8046 29.5681 58.3402 27.4417C58.5857 26.412 58.2286 25.4719 57.336 24.8005ZM23.5712 34.6267C23.3704 36.1935 21.6967 37.6931 20.1122 37.7155C19.6212 37.7155 19.1972 37.5812 18.9294 37.2902C18.6616 37.0217 18.5277 36.6635 18.5277 36.2159C18.5277 35.3877 18.9964 34.47 19.7775 33.7985C20.5585 33.127 21.5405 32.7912 22.3662 32.9255C23.1919 33.0375 23.6828 33.7313 23.5712 34.6267ZM51.2436 34.94C50.9089 36.3502 49.3913 37.6036 47.9631 37.6931C47.3829 37.7379 46.8919 37.5588 46.6018 37.2007C46.2894 36.8426 46.2001 36.3278 46.334 35.7458C46.6911 34.2014 48.2532 32.8808 49.7707 32.8808C50.3286 32.8808 50.775 33.0598 51.0428 33.418C51.3106 33.7985 51.3775 34.3357 51.2436 34.94ZM55.6623 26.9492C55.573 26.9716 55.4837 26.9492 55.3721 26.9492C55.2829 26.9492 55.1713 26.9492 55.082 26.9492C54.4572 26.994 54.0555 27.3969 54.0108 28.0012C53.9662 28.6504 54.3009 29.1204 54.9481 29.2547C55.1043 29.2995 55.2606 29.2995 55.4168 29.2995C55.3498 29.5904 55.2606 29.8814 55.1936 30.1724C54.9258 31.202 54.658 32.1869 54.3902 33.1717C54.2786 33.5746 54.0332 33.8432 53.6538 33.9999C53.6315 33.8209 53.6091 33.6418 53.5645 33.4627C53.0959 31.3811 51.0651 30.15 48.8111 30.6201C46.8919 31.023 45.4413 32.1197 44.504 33.888C44.3925 34.1118 44.3255 34.1342 44.1247 34.1342C43.4998 34.1342 42.8973 34.1342 42.2947 34.1342H41.2012C40.9557 34.1342 40.7326 34.1342 40.4871 34.1342L40.5987 33.7089C40.7549 33.1494 40.8888 32.6122 41.0227 32.075C41.0896 31.8064 41.1566 31.5602 41.2235 31.2916C41.3797 30.7768 41.536 30.2172 41.6475 29.68C41.7145 29.3442 41.7814 29.2995 42.1162 29.2995C44.6603 29.3218 47.2267 29.3218 49.7261 29.3218H51.1543C51.3998 29.3218 51.6899 29.3218 51.98 29.2323C52.5156 29.0533 52.8058 28.6056 52.7388 28.0012C52.6719 27.4417 52.3148 27.0835 51.7792 26.994C51.6007 26.9716 51.4445 26.9716 51.2882 26.9716H42.4063C42.4063 26.9492 42.4286 26.9268 42.4286 26.9045L43.232 23.9051C43.9908 21.0625 44.7942 18.1079 45.5529 15.1981C45.6199 14.9519 45.6422 14.9519 45.8653 14.9519C47.2713 14.9743 48.6995 14.9743 50.0608 14.9519C50.6857 14.9519 51.3106 14.9519 51.9354 14.9519C52.2478 14.9519 52.4041 14.9743 52.4487 14.9966C52.471 15.0414 52.4933 15.2205 52.4933 15.5114V16.1829C52.2925 16.1829 52.1139 16.1829 51.9131 16.1829C51.1767 16.1829 50.4848 16.1829 49.7707 16.1829H49.5699C49.1235 16.1829 48.6772 16.1829 48.2532 16.3172C46.9812 16.6754 46.0885 17.5483 45.7091 18.8242C45.4636 19.6523 45.2628 20.5029 45.0396 21.3087L45.0173 21.4206C44.7718 22.3607 44.9057 23.2112 45.3744 23.838C45.843 24.4647 46.6464 24.8005 47.6283 24.8005C48.2755 24.8005 48.9227 24.8005 49.5699 24.8005C50.6411 24.8005 51.7569 24.8005 52.8727 24.8228C53.1182 24.8228 53.4306 24.9348 53.6538 25.069C54.4125 25.5615 55.1267 26.0763 55.7961 26.6135C55.8408 26.6583 55.8854 26.7702 55.93 26.8821C55.8408 26.9045 55.7515 26.9268 55.6623 26.9492ZM52.471 18.5332V22.4502C52.4264 22.4502 52.3594 22.4502 52.2925 22.4502H51.9577C50.5295 22.4502 49.1012 22.4502 47.673 22.4502C47.3159 22.4502 47.249 22.4055 47.249 22.4055C47.249 22.4055 47.2043 22.3159 47.3159 21.9578L47.4275 21.5101C47.5837 20.8834 47.7622 20.2343 47.9408 19.5852C48.1416 18.8913 48.5879 18.5556 49.3021 18.5332C50.1278 18.5332 50.9535 18.5332 51.7569 18.5332C51.98 18.5332 52.2255 18.5332 52.471 18.5332Z" fill="#F20000"/>
<path d="M32.0055 4.02897C29.4168 1.43252 25.9801 0 22.3425 0H22.3202C14.7773 0.0223831 8.64026 6.20013 8.64026 13.7656C8.64026 17.4365 10.0908 20.9059 12.7018 23.5023C15.2905 26.0764 18.6826 27.5089 22.2979 27.5089H22.3872C29.9301 27.4641 36.0448 21.3088 36.0448 13.788V13.7656C36.0448 10.0948 34.5942 6.62541 32.0055 4.02897ZM22.3425 25.1363C19.3075 25.1363 16.4733 23.95 14.3086 21.7788C12.1439 19.6076 10.9612 16.7426 10.9835 13.6985C11.0058 7.4312 16.0939 2.35023 22.3425 2.35023H22.3649C25.3776 2.35023 28.2341 3.53654 30.3764 5.7077C32.5188 7.85648 33.7016 10.7215 33.7016 13.7433C33.6793 20.0329 28.5911 25.1363 22.3425 25.1363Z" fill="#F20000"/>
<path d="M11.8765 25.4497C11.8541 26.1659 11.3409 26.6136 10.4928 26.6136C9.10922 26.6136 7.70329 26.6136 6.27504 26.6136C4.84679 26.6136 3.41854 26.6136 1.96797 26.6136C1.11994 26.6136 0.606667 26.1659 0.584351 25.4497C0.584351 25.1363 0.673616 24.8453 0.874464 24.6439C1.11994 24.3977 1.49932 24.2634 1.99028 24.2634C2.99452 24.2634 3.99876 24.2634 5.003 24.2634H6.2304H7.41317C8.43973 24.2634 9.44397 24.2634 10.4705 24.2634C10.9615 24.2634 11.3409 24.3977 11.5863 24.6439C11.7872 24.8453 11.8765 25.1139 11.8765 25.4497Z" fill="#F20000"/>
<path d="M10.9823 29.0086C10.9823 29.7249 10.469 30.1726 9.68791 30.1726C8.86221 30.1726 8.01418 30.1726 7.16616 30.1726C6.34045 30.1726 5.51474 30.1726 4.6444 30.1726C4.22039 30.1726 3.86333 30.0383 3.61785 29.7697C3.417 29.5458 3.30542 29.2548 3.30542 28.9415C3.32774 28.27 3.86333 27.8223 4.6444 27.8223C5.24695 27.8223 5.87181 27.8223 6.47435 27.8223H7.18848H7.92492C8.50514 27.8223 9.08537 27.8223 9.68791 27.8223C10.469 27.8447 10.9823 28.3148 10.9823 29.0086Z" fill="#F20000"/>
<path d="M9.84641 33.3509C9.66788 33.5747 9.4224 33.6866 9.13228 33.7314C8.77522 33.7761 8.39584 33.7761 8.01646 33.7761C7.68172 33.7761 7.32465 33.7538 6.96759 33.7314C6.67748 33.709 6.40968 33.5747 6.23115 33.3509C6.0303 33.127 5.96335 32.8137 5.98567 32.4779C6.05262 31.8512 6.47663 31.4483 7.12381 31.4259C7.34697 31.4259 7.54782 31.4259 7.77098 31.4259H8.03878C8.12804 31.4259 8.23963 31.4259 8.32889 31.4259C8.55206 31.4259 8.77522 31.4259 8.99838 31.4259C9.62324 31.4707 10.0249 31.8512 10.0919 32.4555C10.1142 32.8137 10.0249 33.127 9.84641 33.3509Z" fill="#F20000"/>
<path d="M22.2323 35.3205C22.2323 35.6339 22.076 35.9249 21.8306 36.1487C21.6074 36.3501 21.3173 36.462 21.0495 36.462C21.0272 36.462 21.0049 36.462 20.9825 36.462C20.3577 36.4173 19.889 35.9025 19.889 35.2534C19.889 34.94 20.0229 34.6266 20.2461 34.4252C20.4693 34.2014 20.7817 34.1118 21.1164 34.1118C21.7413 34.1566 22.2546 34.6938 22.2323 35.3205Z" fill="#F20000"/>
<path d="M49.9249 35.3429C49.9026 35.9696 49.367 36.462 48.7645 36.462H48.7421C48.4297 36.462 48.1396 36.3054 47.9164 36.0592C47.6933 35.8129 47.5817 35.4996 47.604 35.2086C47.6486 34.5819 48.1619 34.1118 48.8091 34.1118C49.1215 34.1118 49.4339 34.2461 49.6348 34.4699C49.8356 34.7162 49.9472 35.0295 49.9249 35.3429Z" fill="#F20000"/>
<path d="M29.4395 6.67006C29.2164 6.42385 28.9263 6.28955 28.6361 6.28955C28.3014 6.28955 27.9666 6.44623 27.6319 6.7596C26.0474 8.3488 24.7531 9.64702 23.5703 10.8333C23.4364 10.9676 23.3918 10.99 23.2356 10.9229C22.0974 10.5423 21.0709 10.7886 20.2229 11.6391C19.3748 12.4897 19.1293 13.5193 19.5087 14.6608C19.5534 14.8175 19.5534 14.8399 19.3971 14.9966C18.9508 15.4219 18.4822 15.8919 17.9689 16.4291C17.4333 16.9887 17.411 17.6378 17.8796 18.1302C18.1028 18.3541 18.3706 18.4884 18.6607 18.4884H18.683C19.0178 18.4884 19.3302 18.3541 19.6203 18.0855C19.9327 17.7945 20.2675 17.4587 20.5799 17.123L20.6022 17.0782C21.0932 16.541 21.294 16.3844 21.7404 16.6306C21.8743 16.6977 22.0305 16.6977 22.1197 16.6977C22.1421 16.6977 22.1644 16.6977 22.1644 16.6977H22.1867C23.1463 16.7201 24.0613 16.2724 24.6415 15.5114C25.1994 14.7728 25.3556 13.8551 25.1101 12.9821C25.0209 12.6911 25.0655 12.6016 25.2887 12.3778C26.6946 10.99 28.0782 9.60226 29.2387 8.41595C29.8635 7.87875 29.9082 7.16249 29.4395 6.67006ZM23.2356 14.6832C23.0124 14.9071 22.6777 15.0414 22.3429 15.0414H22.2983C21.6065 15.019 21.0709 14.4818 21.0486 13.7879C21.0486 13.4522 21.1825 13.1164 21.4279 12.8702C21.6734 12.624 22.0082 12.4897 22.3429 12.4897C22.6777 12.4897 23.0124 12.624 23.2356 12.8702C23.481 13.1164 23.6149 13.4522 23.6149 13.7879C23.6149 14.1237 23.481 14.437 23.2356 14.6832Z" fill="#F20000"/>
<path d="M23.5013 5.23755C23.5013 5.57329 23.479 5.81951 23.4121 6.04334C23.3451 6.26717 23.2558 6.44624 23.1219 6.55815C22.9434 6.73722 22.6756 6.84913 22.3632 6.84913H22.3186C21.1804 6.82675 21.1804 5.64044 21.1804 5.23755C21.1804 4.61082 21.3143 4.16316 21.6044 3.89456C21.8053 3.69311 22.0731 3.60358 22.4078 3.60358C23.1219 3.62596 23.5013 4.18554 23.5013 5.23755Z" fill="#F20000"/>
<path d="M15.4471 13.788C15.4247 14.4371 15.023 14.84 14.3759 14.9071C14.2196 14.9295 14.0411 14.9295 13.8626 14.9295C13.7287 14.9295 13.5948 14.9295 13.4386 14.9295C12.7468 14.9071 12.2558 14.4371 12.2335 13.8104C12.2112 13.1612 12.7244 12.6464 13.4386 12.6017C13.4832 12.6017 13.5055 12.6017 13.5502 12.6017V12.5793H13.8849C13.9295 12.5793 13.9965 12.5793 14.0411 12.5793C14.175 12.5793 14.3312 12.5793 14.4874 12.6017C15.09 12.736 15.4694 13.1612 15.4471 13.788Z" fill="#F20000"/>
<path d="M32.4505 13.788C32.4282 14.4371 31.9819 14.8847 31.2678 14.9295C31.1785 14.9295 31.0892 14.9295 30.9776 14.9295H30.7545C30.7098 14.9295 30.6875 14.9295 30.6429 14.9295C30.5983 14.9295 30.5536 14.9295 30.509 14.9295C29.7502 14.9071 29.2816 14.4819 29.2593 13.8104C29.237 13.0941 29.7279 12.6241 30.509 12.5793C30.7991 12.5569 31.0446 12.5793 31.2678 12.5793C31.9819 12.6241 32.4728 13.1165 32.4505 13.788Z" fill="#F20000"/>
<path d="M23.5012 22.1594C23.5012 22.2042 23.5012 22.2713 23.5012 22.3161V22.6518C23.5012 22.719 23.5012 22.7861 23.5012 22.8533C23.4343 23.4576 23.0326 23.8605 22.43 23.8829C22.4077 23.8829 22.3631 23.8829 22.3408 23.8829C21.7605 23.8829 21.3365 23.5248 21.2249 22.9652C21.158 22.5847 21.158 22.1594 21.2026 21.7117C21.2696 21.0626 21.8052 20.615 22.4523 20.6821C23.0772 20.7493 23.4789 21.1522 23.5235 21.8013C23.5012 21.9132 23.5012 22.0475 23.5012 22.1594Z" fill="#F20000"/>
</svg>
