<svg width="12" height="14" viewBox="0 0 12 14" fill="none" xmlns="http://www.w3.org/2000/svg">
<path d="M4.04173 13.0521C3.23361 13.0521 2.4435 12.7701 1.81735 12.258C0.995014 11.5854 0.523438 10.5925 0.523438 9.53383C0.523438 8.76276 0.768617 8.03027 1.23233 7.4158C1.68004 6.82265 2.3171 6.37823 3.02624 6.16477C3.66 5.97391 4.32828 6.29092 4.58032 6.90234C4.59656 6.94143 4.61077 6.98204 4.62295 7.02214C4.72169 7.35006 4.68691 7.69676 4.52498 7.99829C4.36305 8.29981 4.09326 8.52037 3.76534 8.6191C3.36584 8.73941 3.0869 9.11555 3.0869 9.53383C3.0869 9.8681 3.26609 10.1826 3.55467 10.3546C3.71407 10.4498 3.89681 10.4958 4.08336 10.4879C4.59554 10.4661 4.99681 10.0384 4.99681 9.51403V1.35104C4.99681 0.766263 5.38463 0.250778 5.93971 0.0977311C6.00088 0.0807259 6.06383 0.0685431 6.12626 0.0611827C6.24225 0.0472232 6.35977 0.0495075 6.47576 0.0672741C6.91789 0.133011 7.29886 0.430728 7.47043 0.844436C7.53515 1.00053 7.5679 1.1655 7.5679 1.33479C7.5679 2.01322 7.87627 2.64242 8.41409 3.06095C8.79887 3.36044 9.25978 3.51983 9.74684 3.52161C10.2699 3.52339 10.7377 3.83532 10.9387 4.31628C11.0265 4.52695 11.056 4.75842 11.0235 4.98583C10.9334 5.6135 10.3811 6.08508 9.73745 6.08508C9.73517 6.08508 9.73314 6.08508 9.73085 6.08508C8.96613 6.08127 8.22729 5.89701 7.56028 5.54751V9.53992C7.56028 9.54398 7.56028 9.54804 7.56003 9.55236C7.55419 10.5958 7.08921 11.576 6.28388 12.2432C5.65443 12.7648 4.85824 13.0521 4.04173 13.0521ZM3.39731 6.87112C3.34706 6.87112 3.29604 6.87848 3.24554 6.89371C2.68995 7.06097 2.19071 7.40945 1.83994 7.87443C1.47674 8.35565 1.28486 8.92951 1.28486 9.53383C1.28486 10.363 1.65466 11.1412 2.29959 11.6686C2.7902 12.0699 3.40899 12.2907 4.04173 12.2907C4.68108 12.2907 5.30494 12.0656 5.79784 11.6569C6.43058 11.1326 6.7953 10.3628 6.7986 9.54474C6.7986 9.54195 6.7986 9.53865 6.79886 9.53484V4.11222L7.40444 4.55537C8.08541 5.05385 8.89125 5.31934 9.73466 5.32365H9.73745C10.0047 5.32365 10.2331 5.13253 10.2697 4.87796C10.2829 4.78507 10.2717 4.69497 10.2362 4.60994C10.1547 4.41527 9.95725 4.2838 9.74431 4.28304C9.08719 4.28075 8.46536 4.06578 7.94658 3.66171C7.22221 3.09775 6.80672 2.24952 6.80672 1.33479C6.80672 1.26601 6.79353 1.19901 6.76738 1.13606C6.69759 0.967787 6.54276 0.84672 6.36357 0.820324L6.36028 0.819817C6.31256 0.812456 6.26434 0.811441 6.21662 0.817279C6.192 0.820324 6.16713 0.825147 6.14251 0.832C5.91586 0.894183 5.75799 1.10764 5.75799 1.35104V9.51403C5.75799 9.95997 5.58997 10.3846 5.28514 10.7097C4.97702 11.0384 4.56153 11.2298 4.11534 11.2486C3.78006 11.2625 3.45137 11.1798 3.16432 11.0085C2.6468 10.6998 2.32523 10.1346 2.32523 9.53383C2.32523 8.78256 2.827 8.10666 3.54554 7.89016C3.67853 7.85006 3.78818 7.76047 3.85391 7.63813C3.91965 7.5158 3.93386 7.37493 3.89376 7.24194C3.88894 7.22569 3.88285 7.20894 3.87625 7.1927C3.79402 6.9932 3.6029 6.87112 3.39731 6.87112ZM7.55977 9.54627V9.54957C7.55977 9.54855 7.55977 9.54728 7.55977 9.54627Z" fill="white"/>
</svg>
