<svg width="47" height="45" viewBox="0 0 47 45" fill="none" xmlns="http://www.w3.org/2000/svg">
<path d="M17.6115 35.145C17.6464 35.2149 17.6988 35.2848 17.7512 35.3372L17.7862 35.18L17.6115 35.145Z" fill="#FF0000"/>
<path d="M37.5143 37.9233V38.0107C37.5493 37.9757 37.5842 37.9583 37.6192 37.9233H37.5143ZM30.4027 14.2644L30.49 14.3518L30.5599 14.2819C30.49 14.2819 30.4551 14.2644 30.4027 14.2644ZM17.6122 35.1451L17.3676 35.0926C17.42 35.1625 17.4549 35.2324 17.5073 35.3023C17.5248 35.3198 17.5423 35.3547 17.5598 35.3722C17.5947 35.4421 17.6471 35.4945 17.6995 35.5644C17.717 35.4945 17.7345 35.4246 17.752 35.3547V35.3373L17.7869 35.18L17.6122 35.1451Z" fill="#FF0000"/>
<path d="M40.0297 20.1354C37.6533 16.4835 33.949 14.7711 30.5417 14.2819L30.4718 14.3518L30.3844 14.2644C28.2526 13.9848 26.2432 14.1945 24.758 14.7187L24.6007 14.7711L25.1074 16.4486L25.2647 16.4136C31.2231 14.841 36.0632 17.5494 38.16 20.7819C38.0202 20.7819 37.8979 20.7819 37.7756 20.7819C36.4127 20.6596 34.6479 20.6946 33.2325 22.04C33.1976 22.075 33.0229 22.075 32.9879 22.04C32.254 21.5682 31.4503 21.5333 30.7513 21.5508C30.3844 21.5682 30.0174 21.5682 29.6505 21.5508C29.3884 21.5508 29.1263 21.5508 28.8642 21.5508C28.672 21.5508 28.4448 21.5508 28.2701 21.6906C27.9731 21.9002 27.6585 22.1099 27.344 22.2847C26.7325 22.6516 26.0859 23.036 25.5967 23.6476L24.9152 21.0965C24.0765 17.9862 23.2203 14.7711 22.3816 11.6084C22.3292 11.4337 22.3816 11.3638 22.5389 11.224C23.0106 10.7697 23.4649 10.2979 23.9192 9.82615C24.9152 8.8127 25.9287 7.7643 26.9946 6.80326C28.2526 5.63255 29.1438 4.18226 30.0175 2.78439L30.1223 2.62713C30.5591 1.9282 30.4543 1.072 29.8602 0.495383C29.2836 -0.081238 28.4623 -0.151132 27.7284 0.268229C27.3266 0.495383 26.9946 0.722536 26.68 0.932216C26.4878 1.072 26.2782 1.19432 26.0685 1.3341C25.5617 1.6661 25.0375 1.99809 24.6007 2.41745C23.1329 3.81532 21.6827 5.28308 20.2848 6.69842C19.9004 7.08284 19.5334 7.46725 19.149 7.83419C18.9918 8.00892 18.8869 8.0264 18.6772 7.97398C16.0912 7.34494 13.4877 6.7159 10.9016 6.06938C8.75238 5.54518 6.58568 5.02098 4.43646 4.49678C3.89478 4.35699 3.51037 4.46183 3.1609 4.84625C2.88133 5.14329 2.60176 5.42287 2.32218 5.71991C2.1824 5.8597 2.02514 6.01696 1.88535 6.15675C1.55336 6.48874 1.41357 6.82074 1.46599 7.13526C1.51841 7.44978 1.78051 7.6944 2.21734 7.88661C3.78994 8.58555 5.36255 9.28448 6.95262 9.96594L13.9245 13.0413L13.3129 13.6703C11.2161 15.7671 9.03195 17.9513 6.88273 20.0655C6.83031 20.118 6.67305 20.1529 6.51579 20.1354C5.72949 20.0306 4.89077 19.9258 3.80742 19.751C3.30069 19.6811 2.91628 19.8034 2.58428 20.1704C2.33966 20.45 2.06008 20.7121 1.79798 20.9742C1.6582 21.1139 1.50094 21.2537 1.36115 21.411C0.924315 21.8478 0.889368 22.2148 0.941788 22.4419C0.994208 22.6691 1.18641 22.9661 1.78051 23.1758L2.6367 23.4728C3.58026 23.8048 4.5413 24.1368 5.50233 24.4339C5.78191 24.5212 5.90422 24.661 6.00906 24.9581C6.46337 26.3385 6.91767 27.7014 7.28462 28.7148C7.4244 29.1342 7.6865 29.3963 8.00102 29.4662C8.31554 29.5361 8.66501 29.3963 8.97953 29.0818C9.13679 28.9245 9.29405 28.7498 9.46878 28.5925C9.71341 28.3304 9.97551 28.0683 10.2376 27.8237C10.5871 27.4917 10.7269 27.1073 10.657 26.618C10.6046 26.2511 10.5521 25.8842 10.4997 25.5347C10.4298 25.0105 10.3599 24.4688 10.2551 23.9446C10.2201 23.7175 10.2551 23.5952 10.4298 23.4204C12.0898 21.7605 13.7323 20.118 15.3923 18.458L17.2619 16.5883C17.2968 16.5534 17.3318 16.5184 17.3842 16.4835C17.4192 16.5709 17.4716 16.6582 17.5065 16.7456L23.0281 28.6974C23.3252 29.3264 23.5348 29.4837 24.1115 29.4837L24.2862 30.0254C24.4609 30.5845 24.6531 31.1262 24.8279 31.6853C24.9851 32.1746 25.3521 32.4192 25.8588 32.4017C26.0685 32.4017 26.2607 32.4017 26.4704 32.4017H26.5053C26.5403 32.4017 26.5752 32.4017 26.6101 32.4017C26.6451 32.4017 26.6975 32.4017 26.7325 32.4017C27.0819 32.9085 27.4314 33.4327 27.7634 33.9743C27.7634 34.0093 27.7459 34.0442 27.7284 34.0792C27.711 34.1141 27.6935 34.1665 27.6935 34.2015C27.6236 34.4811 27.5537 34.7606 27.4838 35.0402C27.379 35.4596 27.2567 35.8964 27.1518 36.3158C27.047 36.7176 27.0819 37.0496 27.2741 37.2768C27.4489 37.5039 27.7634 37.6263 28.1827 37.6263C28.8467 37.6263 29.4932 37.6263 30.1048 37.6263C30.7513 37.6263 31.0134 37.4341 31.2231 36.805C31.3978 36.2633 31.5901 35.7042 31.7648 35.1625C32.0094 34.4286 32.254 33.6948 32.4987 32.9609C32.5686 32.7687 32.6385 32.6289 32.7258 32.5066C33.2325 31.7902 33.7742 31.0738 34.2984 30.3573C34.3858 30.2525 34.4732 30.2001 34.4906 30.2001C35.207 30.1651 35.8361 30.1826 36.3428 30.6893C36.4651 30.8116 36.7272 30.9514 36.9369 30.899C37.1815 30.8291 37.3038 30.934 37.5135 31.1611L37.5834 31.231C37.6358 31.2834 37.6883 31.3359 37.7407 31.3883C37.8979 31.563 38.0727 31.7377 38.2474 31.895C38.2823 31.9299 38.3173 31.9474 38.3522 31.9824C38.527 32.1571 38.7367 32.3318 38.9988 32.3843C39.1735 32.4192 39.3482 32.3843 39.5055 32.3318C38.0901 35.7391 35.1371 38.2728 31.5202 39.1639C27.8158 40.0725 24.059 39.1639 21.1759 36.6827C22.0671 36.0886 22.3466 35.18 22.6262 34.2888C22.6786 34.1141 22.7311 33.9394 22.801 33.7646C22.8184 33.7297 22.8184 33.6773 22.8359 33.6423C22.8534 33.5899 22.8708 33.5375 22.8883 33.4851C23.0631 33.0308 22.9757 32.6289 22.6087 32.2619C21.9797 31.6504 21.3157 31.0039 20.6692 30.3224C20.3547 29.9904 19.9877 29.8331 19.5334 29.8506C18.9743 29.8681 18.3977 29.8681 17.8036 29.8506C17.6114 29.8506 17.4017 29.8506 17.2095 29.8506C17.2095 29.7633 17.192 29.6759 17.1745 29.5885C17.1396 29.274 17.1046 28.9769 17.1396 28.7148C17.1571 28.6799 17.2794 28.5925 17.3667 28.5401C17.4716 28.4702 17.5589 28.4178 17.6463 28.3304C18.153 27.8237 18.6598 27.3345 19.149 26.8277C19.5684 26.4084 20.0052 25.989 20.4246 25.5522C20.7915 25.1852 20.8614 24.7833 20.6692 24.329C20.1974 23.2806 19.7256 22.372 18.6772 21.9002L18.9393 21.411L17.4366 20.4674L17.3493 20.6072C14.4312 24.9057 14.5535 30.7418 17.3842 35.1625L17.6288 35.2149L17.8036 35.2499L17.7686 35.4071V35.4246C17.7512 35.4945 17.7337 35.5644 17.7162 35.6343C18.1356 36.2459 18.6248 36.8225 19.1665 37.3642C21.7351 39.9502 25.2647 41.2782 28.7943 41.2782C31.8696 41.2782 34.9624 40.2647 37.3912 38.2204C37.4436 38.1854 37.4786 38.133 37.531 38.098V38.0107H37.6358C42.7905 33.3802 43.8214 25.9541 40.0297 20.1354ZM24.2512 26.9326C24.1988 26.8103 24.1289 26.6879 24.0765 26.5656L22.9757 24.2067C21.5254 21.044 20.0576 17.8988 18.5899 14.7362C18.4501 14.4391 18.2928 14.2294 18.1181 14.0897C18.0133 14.0023 17.856 13.9149 17.6638 13.9149C17.4366 13.9149 17.1571 14.0198 16.8251 14.3518C15.3398 15.837 13.8546 17.3222 12.3694 18.8075L10.1328 21.044C9.66099 21.5158 9.17174 22.0051 8.69996 22.4769C8.38544 22.7914 8.26312 23.1408 8.33302 23.5777C8.40291 23.9796 8.45533 24.3989 8.50775 24.7833C8.57764 25.2726 8.64754 25.7619 8.71743 26.2511C8.76985 26.5132 8.71743 26.6705 8.56017 26.8103C8.4728 26.5656 8.40291 26.321 8.31554 26.0938C8.05344 25.325 7.80882 24.5911 7.58166 23.8398C7.40693 23.2806 7.09241 22.9661 6.55073 22.7914C5.79938 22.5642 5.0655 22.3196 4.29667 22.0575C4.05205 21.9701 3.80742 21.8828 3.56279 21.8129C3.70258 21.6556 3.82489 21.6032 4.05204 21.6556C5.08297 21.8303 5.99159 21.9701 6.83031 22.04C7.12736 22.075 7.58166 21.9701 7.82629 21.7255C10.5871 18.9997 13.3129 16.2913 16.0912 13.4956C16.4581 13.1286 16.4931 12.7966 16.4407 12.5869C16.4057 12.3598 16.231 12.0453 15.6893 11.8181C13.1032 10.6823 10.5172 9.54658 7.93113 8.41081L4.36656 6.83821C4.22678 6.78579 4.10446 6.7159 3.96468 6.66348C4.12194 6.4538 4.31415 6.41885 4.69856 6.50622C7.6865 7.2401 10.7269 7.97398 13.6624 8.67291C15.3923 9.09227 17.1221 9.51163 18.852 9.93099C19.4461 10.0708 19.813 9.79121 20.0576 9.52911C20.5294 9.05733 21.0012 8.56807 21.473 8.09629C22.9058 6.646 24.391 5.12582 25.9112 3.71048C26.4704 3.18628 27.1518 2.76692 27.7983 2.34756C27.9905 2.22524 28.1653 2.1204 28.3575 1.99809C27.4838 3.51827 26.4179 4.88119 25.0725 6.13928C24.1639 6.978 23.2902 7.88661 22.434 8.74281C21.9098 9.26701 21.3681 9.82615 20.8265 10.3504C20.442 10.7348 20.3372 11.1367 20.477 11.6609C21.0187 13.6353 21.5429 15.6273 22.0671 17.6193C22.8184 20.4674 23.6047 23.4029 24.391 26.2861C24.5133 26.6006 24.4784 26.7753 24.2512 26.9326ZM17.8036 23.4903C17.821 23.5078 17.8385 23.5253 17.8735 23.5253C18.0307 23.6301 18.1705 23.7175 18.2928 23.8223C18.485 23.997 18.5899 24.1718 18.5899 24.3465C18.5899 24.5212 18.5025 24.696 18.3103 24.9057C17.9783 25.2377 17.6463 25.5696 17.2794 25.9366L17.1221 26.0938C17.227 25.2202 17.4541 24.3815 17.8036 23.4903ZM20.9663 33.1706C20.9313 33.2579 20.9138 33.3628 20.8789 33.4501C20.6692 34.1665 20.477 34.848 19.7955 35.2848C18.7821 34.0617 18.1181 32.8735 17.7162 31.598H18.0133C18.5025 31.598 18.9393 31.598 19.3762 31.598C19.3936 31.598 19.4635 31.6329 19.5509 31.7203C20.0227 32.1746 20.4595 32.6114 20.8614 33.0482C20.9138 33.0832 20.9488 33.1356 20.9663 33.1706ZM40.0996 29.2915C39.8375 29.5011 39.5928 29.7283 39.3657 29.938C39.2958 29.9904 39.2434 30.0603 39.1735 30.1127C38.4047 29.0643 37.2689 28.7673 36.1506 28.4702C35.9759 28.4178 35.7837 28.3654 35.6089 28.313C35.1371 28.1732 34.6129 28.2256 34.1237 28.2605C34.0014 28.278 33.8965 28.278 33.7742 28.2955C33.5471 28.313 33.3024 28.5052 33.1627 28.6974C32.5161 29.5361 31.8347 30.4447 31.0309 31.5281C30.8911 31.7028 30.8212 31.9299 30.7513 32.1222C30.4892 32.9259 30.2097 33.7297 29.9476 34.5335L29.6855 35.3198C29.6156 35.5295 29.5631 35.6867 29.5107 35.7042C29.4583 35.7217 29.336 35.7217 29.1613 35.6867C29.1962 35.5819 29.2137 35.477 29.2486 35.3722C29.336 34.9878 29.4408 34.6034 29.5631 34.219C29.7204 33.7122 29.6505 33.2929 29.3535 32.8735C28.9166 32.2969 28.5672 31.7552 28.2526 31.2135C27.9206 30.6544 27.4663 30.4098 26.8548 30.4797C26.7499 30.4971 26.6276 30.4971 26.4878 30.4797C26.4704 30.4797 26.4354 30.4797 26.4179 30.4797C26.4005 30.4098 26.3655 30.3224 26.3306 30.2525C26.2257 29.938 26.1209 29.6584 26.0335 29.3614C26.0161 29.2915 26.0161 29.1866 26.051 29.1342C26.6626 28.2081 26.715 27.1597 26.6626 26.2686C26.6276 25.4299 26.9771 24.7659 27.7459 24.1892C28.5672 23.5777 29.3884 23.3331 30.4193 23.368C31.3105 23.403 31.9395 23.5602 32.4812 23.8922C33.0054 24.2067 33.5121 24.1893 33.9315 23.8048C35.0498 22.8089 36.3079 22.4244 37.8106 22.6341C38.1251 22.6691 38.4571 22.6691 38.8065 22.6341C39.1735 22.5992 39.3307 22.704 39.488 23.071C40.2219 24.8532 40.5189 26.7054 40.3966 28.6275C40.4141 28.942 40.3093 29.1342 40.0996 29.2915Z" fill="#FF0000"/>
<path d="M17.5751 35.3198C17.5751 35.3373 17.5751 35.3547 17.5577 35.3722C17.5402 35.3547 17.5227 35.3198 17.5052 35.3023C17.5227 35.3023 17.5577 35.3023 17.5751 35.3198Z" fill="#FF0000"/>
<path d="M17.6093 35.145L17.3646 35.0926C17.417 35.1625 17.452 35.2324 17.5044 35.3023C17.5219 35.3197 17.5394 35.3547 17.5568 35.3722C17.5918 35.4421 17.6442 35.4945 17.6966 35.5644C17.7141 35.4945 17.7316 35.4246 17.749 35.3547V35.3372L17.784 35.18L17.6093 35.145Z" fill="#FF0000"/>
<path d="M24.6861 42.6236L24.1969 44.3535L24.0221 44.3185C22.8339 44.004 21.6807 43.5322 20.4925 42.8857C18.8151 41.9771 17.2774 40.754 15.9145 39.2687C15.8096 39.1464 15.5825 39.0591 15.4078 39.0416C14.8661 39.0241 14.3419 39.0241 13.7653 39.0241C13.5556 39.0241 13.3284 39.0241 13.1187 39.0241H12.944V37.2069H14.2545C11.284 32.4367 10.655 27.5266 12.2975 22.1798L12.3499 22.0051L14.0973 22.5992L14.0448 22.7564C12.612 27.4043 13.1362 31.7203 15.6524 35.9139L15.9844 34.7257L17.3822 35.0577C17.4347 35.1276 17.4696 35.1974 17.522 35.2673C17.5395 35.2848 17.557 35.3198 17.5744 35.3372C17.6094 35.4071 17.6618 35.4595 17.7142 35.5294C17.6793 35.6692 17.6443 35.8265 17.6094 35.9663C17.4696 36.508 17.3473 37.0147 17.2075 37.5214C17.1376 37.7311 17.1726 37.8534 17.3298 38.0107C19.1995 40.0725 21.506 41.5577 24.1794 42.4139C24.2493 42.4314 24.3192 42.4664 24.3891 42.4838L24.6861 42.6236Z" fill="#FF0000"/>
<path d="M30.4022 14.2643L30.4896 14.3517L30.5595 14.2818C30.4896 14.2818 30.4546 14.2643 30.4022 14.2643Z" fill="#FF0000"/>
<path d="M45.482 23.1234L43.7172 23.6301L43.6648 23.4728C41.568 17.3397 37.3219 13.6004 31.0315 12.3947C31.1014 12.4297 31.1538 12.4646 31.2237 12.4996C31.3111 12.5695 31.3985 12.6393 31.5208 12.7267C31.5907 12.7791 31.6606 12.849 31.7479 12.9189L31.9227 13.0587L31.7479 13.1985C31.6606 13.2684 31.5732 13.3208 31.5033 13.3732C31.346 13.4781 31.2237 13.5829 31.1014 13.6877C30.9966 13.7926 30.8917 13.8974 30.7869 14.0372C30.7345 14.1071 30.6821 14.1595 30.6122 14.2294L30.5597 14.2993C30.5073 14.2993 30.4549 14.2818 30.4025 14.2818L30.3675 14.2469C30.1928 14.0722 30.0181 13.8974 29.8433 13.7402C29.4414 13.3383 29.057 12.9713 28.7076 12.5694C28.4804 12.3073 28.2358 12.22 27.8688 12.2724C27.0825 12.3947 26.2962 12.4996 25.475 12.6044L24.3392 12.7617L23.85 11.0143L24.0422 10.9794C24.3742 10.927 24.6887 10.8745 25.0032 10.8046C25.7371 10.6649 26.436 10.5425 27.1524 10.4901C28.1659 10.4377 28.7775 10.1581 29.2318 9.54656C29.4414 9.24951 29.7035 9.00489 29.9482 8.76026C30.053 8.65542 30.1579 8.55058 30.2627 8.44574L30.385 8.32343L31.7829 9.66887L30.8568 10.5076C38.2305 11.7831 43.0008 15.8544 45.4645 22.9661L45.482 23.1234Z" fill="#FF0000"/>
<path d="M37.5123 37.9233V38.0106C37.5473 37.9757 37.5822 37.9582 37.6172 37.9233H37.5123Z" fill="#FF0000"/>
<path d="M45.9356 29.8681L45.9006 30.0603C45.8657 30.27 45.8133 30.4797 45.7783 30.7068C45.6909 31.1786 45.6036 31.6154 45.4813 32.0523C44.7998 34.6208 43.5592 36.9623 41.8119 39.0066C41.6896 39.1464 41.6022 39.3736 41.6022 39.5833C41.5847 40.1075 41.5847 40.6317 41.5847 41.1733C41.5847 41.383 41.5847 41.5927 41.5847 41.8199V41.9946H39.7675V40.9811C36.9543 43.2527 33.879 44.5457 30.3319 44.9126L30.1571 44.9301L29.9999 43.0954L30.1746 43.0779C33.2499 42.7459 35.9233 41.6626 38.3347 39.758H37.5484V38.0107C37.5833 37.9757 37.6183 37.9582 37.6532 37.9233H37.7231C37.9328 37.9233 38.1599 37.9233 38.3696 37.9233C38.8938 37.9233 39.418 37.9233 39.9422 37.9408C40.2043 37.9408 40.3616 37.8709 40.5363 37.6612C42.3361 35.512 43.4893 33.0308 43.9611 30.3224C43.9786 30.2176 43.996 30.1127 44.031 29.9904L44.1009 29.6409L45.9356 29.8681Z" fill="#FF0000"/>
<path d="M46.0767 27.8412H44.2245L44.0673 25.4124L45.8845 25.1503L46.0767 27.8412Z" fill="#FF0000"/>
<path d="M28.8836 43.1304V45L26.9965 44.9126L27.1537 43.1304H28.8836Z" fill="#FF0000"/>
</svg>
