<svg width="13" height="16" viewBox="0 0 13 16" fill="none" xmlns="http://www.w3.org/2000/svg">
<path fill-rule="evenodd" clip-rule="evenodd" d="M1.92724 0.656738H11.5565C12.2401 0.656738 12.7942 1.25042 12.7942 1.98279V12.2999C12.7942 13.0323 12.24 13.626 11.5565 13.626H6.20181L3.85801 15.4295V13.626H1.92724C1.24365 13.626 0.689545 13.0322 0.689545 12.2999V1.98284C0.689545 1.25042 1.24369 0.656738 1.92724 0.656738ZM12.7936 9.96104V12.0391C12.542 12.3143 12.1914 12.4853 11.8035 12.4853H5.68976C5.28065 12.4853 4.90614 12.2395 4.72035 11.849C4.53457 11.4585 4.56886 10.9893 4.80923 10.6346L8.73049 4.84699H6.30806C5.54248 4.84699 4.92181 4.18198 4.92181 3.36173C4.92181 2.54147 5.54248 1.87646 6.30806 1.87646H12.0691C12.3411 1.87646 12.5975 1.98571 12.7936 2.17333V3.95512L8.98491 9.51485H11.8034C12.1914 9.51485 12.542 9.68582 12.7936 9.96104Z" fill="white"/>
</svg>
