<svg width="41" height="40" viewBox="0 0 41 40" fill="none" xmlns="http://www.w3.org/2000/svg">
<path d="M40.5679 30.0258C40.5679 31.6204 40.5523 33.2307 40.5679 34.8253C40.5679 35.5288 40.2703 35.9822 39.628 36.248C36.808 37.4518 34.0037 38.6555 31.1838 39.8593C30.7294 40.0469 30.3221 40.0469 29.8678 39.8593C27.0635 38.6399 24.2435 37.4518 21.4236 36.248C20.7969 35.9822 20.4993 35.5445 20.4993 34.8566C20.5149 31.6204 20.5149 28.3999 20.4993 25.1638C20.4993 24.4915 20.7813 24.0538 21.3923 23.8036C24.2279 22.5999 27.0635 21.3804 29.8991 20.161C30.3221 19.9734 30.7138 19.9734 31.1368 20.161C33.9724 21.3804 36.808 22.5999 39.6436 23.8036C40.2546 24.0694 40.5366 24.5072 40.5366 25.1638C40.5679 26.8053 40.5679 28.4156 40.5679 30.0258ZM31.7948 36.8733C31.9671 36.8108 32.0924 36.7639 32.2021 36.717C34.035 35.9353 35.868 35.138 37.701 34.3719C37.9673 34.2625 38.077 34.1374 38.0613 33.8404C38.0457 31.6673 38.0613 29.4943 38.0457 27.3212C38.0457 27.2118 38.03 27.1023 38.03 26.9929C37.983 26.9773 37.9673 26.9773 37.9673 26.9773C35.962 27.8215 33.9724 28.6813 31.9671 29.5412C31.8731 29.5724 31.7948 29.7288 31.7948 29.8226C31.7948 32.152 31.7948 34.4814 31.7948 36.8733ZM27.4552 28.822C27.4238 28.9002 27.4238 28.9158 27.4238 28.9158C27.4238 29.6506 27.4238 30.401 27.4238 31.1358C27.4238 31.9644 26.9068 32.5272 26.1548 32.5272C25.4185 32.5272 24.9172 31.9487 24.9172 31.1202C24.9172 30.0883 24.9172 29.0565 24.9172 28.0403C24.9172 27.9153 24.8859 27.7277 24.8232 27.6964C24.2592 27.4306 23.6639 27.1961 23.0686 26.9304C23.0529 27.0242 23.0372 27.0554 23.0372 27.1023C23.0372 29.3848 23.0372 31.6517 23.0372 33.9342C23.0372 34.1687 23.1312 34.2469 23.3192 34.325C25.2149 35.1224 27.1105 35.9353 28.9905 36.7482C29.0845 36.7795 29.1785 36.8108 29.3038 36.8577C29.3038 34.4814 29.3038 32.1363 29.3038 29.7913C29.3038 29.7131 29.2411 29.5881 29.1628 29.5568C28.5831 29.291 28.0348 29.0565 27.4552 28.822ZM36.1187 25.0231C35.6487 24.8198 35.304 24.6479 34.928 24.5228C34.74 24.4603 34.4894 24.4446 34.317 24.5228C33.1891 25.0074 32.0924 25.539 30.9801 26.0392C30.4161 26.305 29.8678 26.5552 29.2411 26.8522C29.5701 26.9929 29.8365 27.0867 30.0871 27.2274C30.3848 27.3994 30.6511 27.3837 30.9644 27.2274C31.7634 26.8522 32.5937 26.5239 33.4084 26.18C34.3014 25.8047 35.163 25.4452 36.1187 25.0231ZM31.4501 23.0689C30.9018 22.6624 30.3848 22.6624 29.7738 22.9594C28.3481 23.6317 26.8755 24.2101 25.4342 24.8355C25.3089 24.8824 25.1835 24.9605 25.0112 25.0543C25.2462 25.1638 25.4342 25.2263 25.5909 25.3201C25.9668 25.539 26.2958 25.4921 26.6875 25.3201C28.1601 24.6166 29.6641 23.9444 31.1524 23.2565C31.2464 23.1783 31.3404 23.1158 31.4501 23.0689Z" fill="#F20000"/>
<path d="M27.2976 11.203C27.0313 11.5 26.7963 11.7658 26.5456 12.0003C25.9816 12.5631 25.214 12.5787 24.697 12.0628C24.1956 11.5469 24.227 10.7965 24.7596 10.2493C25.0103 9.9992 25.2766 9.7647 25.5743 9.48329C23.3497 7.65417 20.8587 6.62235 17.9917 6.32531C17.9917 6.70052 17.9917 7.06009 17.9917 7.40403C17.9917 8.20134 17.4748 8.76415 16.7541 8.76415C16.0334 8.76415 15.5008 8.20134 15.4851 7.41966C15.4851 7.07572 15.4851 6.71615 15.4851 6.32531C12.6338 6.60672 10.1429 7.63853 7.90258 9.46766C8.20024 9.74906 8.46657 9.98357 8.71723 10.2493C9.23422 10.7809 9.24989 11.5469 8.74857 12.0316C8.24724 12.5475 7.47959 12.5318 6.93126 12.0003C6.6806 11.7502 6.4456 11.4844 6.17927 11.1874C4.33064 13.423 3.31232 15.9087 3.01466 18.7696C3.40632 18.7696 3.76665 18.7696 4.12697 18.7696C4.89463 18.7696 5.45862 19.3012 5.45862 20.0047C5.45862 20.7238 4.89463 21.2554 4.11131 21.271C3.76665 21.271 3.40632 21.271 3.01466 21.271C3.29665 24.1163 4.33064 26.6021 6.16361 28.8377C6.4456 28.5406 6.6806 28.2748 6.94693 28.0247C7.47959 27.5088 8.23157 27.4932 8.7329 27.9778C9.24989 28.4781 9.23423 29.2441 8.70157 29.7913C8.4509 30.0414 8.18457 30.2759 7.88691 30.5573C10.1115 32.4021 12.6025 33.4183 15.4695 33.7153C15.4695 33.3245 15.4695 32.9649 15.4695 32.6053C15.4695 31.8237 16.0178 31.2609 16.7384 31.2609C17.4434 31.2765 17.9604 31.8237 17.9761 32.6053C17.9761 33.3558 17.9761 34.1218 17.9761 34.8722C17.9761 35.779 17.4591 36.2792 16.5661 36.2636C9.28123 36.2167 2.84233 31.214 0.978025 24.1789C-1.30927 15.5491 3.79798 6.68488 12.4302 4.32421C12.5868 4.27731 12.7592 4.24605 12.9628 4.18351C12.9002 2.82339 13.3232 1.65087 14.4198 0.791028C15.1718 0.196952 16.0334 -0.0531852 16.9734 0.00934911C18.5401 0.087517 20.5924 1.36947 20.4984 4.16788C21.2504 4.41802 22.018 4.63689 22.7387 4.93392C27.5483 6.95065 30.7755 10.4213 32.3422 15.3928C32.5772 16.1276 32.2169 16.8311 31.5432 17.0343C30.8539 17.2375 30.1959 16.878 29.9452 16.1432C29.9139 16.0494 29.8826 15.9712 29.8669 15.8774C29.3499 14.2359 28.5352 12.7351 27.4543 11.4062C27.4543 11.3593 27.4073 11.3124 27.2976 11.203ZM17.9447 3.77704C18.0387 3.4331 17.8664 3.01099 17.4904 2.74522C17.0674 2.43255 16.5034 2.43255 16.0648 2.71396C15.6731 2.97973 15.4851 3.40183 15.5635 3.77704C16.3624 3.77704 17.1458 3.77704 17.9447 3.77704Z" fill="#F20000"/>
<path d="M17.0523 24.4134C14.6396 24.4134 12.979 22.7249 12.979 20.63C12.9947 18.5664 14.6866 16.878 16.7546 16.9093C17.1149 16.9093 17.2716 16.8154 17.4283 16.5028C18.0549 15.2052 18.7129 13.9232 19.3552 12.6257C19.6216 12.0941 20.1386 11.8283 20.6712 11.9065C21.2039 11.9847 21.6582 12.3755 21.7209 12.9227C21.7522 13.2197 21.6739 13.5793 21.5485 13.8451C20.9375 15.1427 20.2796 16.409 19.6372 17.6909C19.5119 17.9411 19.5119 18.0974 19.6999 18.3319C20.6242 19.5513 20.8122 20.8958 20.1386 22.2872C19.4492 23.6786 18.2743 24.3508 17.0523 24.4134ZM18.0079 20.6613C18.0079 19.9891 17.4596 19.4106 16.7703 19.4106C16.081 19.395 15.517 19.9422 15.5013 20.63C15.4856 21.3179 16.0653 21.912 16.7546 21.912C17.4283 21.8964 18.0079 21.3336 18.0079 20.6613Z" fill="#F20000"/>
</svg>
