<svg width="37" height="40" viewBox="0 0 37 40" fill="none" xmlns="http://www.w3.org/2000/svg">
<path d="M35.7944 23.9588C35.1907 23.9588 34.8084 24.4016 34.8084 25.106C34.8084 26.1929 34.7883 27.2797 34.8084 28.3666C34.8084 28.749 34.6877 28.9301 34.3657 29.1113C29.5768 31.7278 24.7879 34.3644 19.999 36.9809C19.8582 37.0615 19.7173 37.1218 19.5362 37.2225C19.5161 37.1017 19.5161 37.0212 19.5161 36.9407C19.5161 31.5869 19.5161 26.2331 19.5362 20.8995C19.5362 20.7183 19.7173 20.4768 19.8783 20.3762C21.2264 19.6113 22.5746 18.8868 23.9227 18.1421C24.0434 18.0817 24.1843 18.0213 24.3855 17.9408V18.5446C24.3855 19.6918 24.3855 20.819 24.3855 21.9662C24.3855 22.9725 25.1501 23.3952 26.0354 22.9323C27.1623 22.3285 28.2891 21.6844 29.436 21.0806C29.9189 20.819 30.1201 20.4567 30.1201 19.9132C30.1 18.3433 30.1201 16.7533 30.1 15.1834C30.1 14.9016 30.1603 14.7205 30.4219 14.5796C31.7902 13.8349 33.1585 13.0902 34.5267 12.3455C34.6072 12.3052 34.6877 12.2851 34.8084 12.265C34.8084 13.7745 34.8084 15.2639 34.8084 16.7332C34.8084 17.4779 35.1907 17.9207 35.7944 17.9408C36.4181 17.9609 36.8206 17.498 36.8206 16.713C36.8206 14.7003 36.8206 12.6876 36.8206 10.6749C36.8206 10.1315 36.5992 9.76923 36.1163 9.50757C30.4622 6.40801 24.808 3.30845 19.174 0.188766C18.7112 -0.052758 18.3088 -0.072885 17.846 0.188766C12.1919 3.30845 6.51762 6.42814 0.843367 9.5277C0.380573 9.78935 0.159237 10.1315 0.179358 10.6548C0.19948 11.2788 0.179358 11.8826 0.179358 12.5468V27.4407C0.179358 28.0848 0.19948 28.6886 0.179358 29.2924C0.159237 29.8359 0.380573 30.1981 0.863488 30.4799C6.53774 33.5795 12.1919 36.6992 17.8661 39.8189C18.3088 40.0604 18.7112 40.0604 19.1539 39.8189C24.808 36.6992 30.4823 33.5795 36.1565 30.4799C36.6193 30.2384 36.8407 29.8761 36.8407 29.3528C36.8206 27.964 36.8407 26.5753 36.8407 25.1865C36.8206 24.3814 36.4181 23.9386 35.7944 23.9588ZM28.0677 19.3296C28.0677 19.4302 27.947 19.5711 27.8464 19.6113C27.4037 19.873 26.9409 20.1145 26.3976 20.4164C26.3976 19.2088 26.3976 18.0817 26.3976 16.9747C26.3976 16.8741 26.4781 16.7533 26.5586 16.6929C27.0214 16.4111 27.5043 16.1696 28.0677 15.8476C28.0677 17.0753 28.0878 18.2024 28.0677 19.3296ZM18.2887 2.24172C18.4497 2.16121 18.7314 2.22159 18.9124 2.32223C22.7355 4.41544 26.5385 6.50865 30.3616 8.60186C31.4682 9.20567 32.5548 9.80948 33.7219 10.4535C32.2127 11.2989 30.7439 12.104 29.275 12.8688C29.1342 12.9292 28.8726 12.8285 28.6915 12.7279C25.1903 10.8158 21.7093 8.90376 18.2082 6.97157C16.7997 6.20674 15.3912 5.42179 13.9223 4.61671C15.4314 3.7915 16.8399 2.98642 18.2887 2.24172ZM10.3407 6.58916C11.7693 5.7237 11.7693 5.74382 13.2583 6.5489C17.6046 8.94402 21.9709 11.3391 26.3373 13.7342C26.5385 13.8349 26.7397 13.9556 27.0415 14.1368C26.4781 14.4387 26.0153 14.7205 25.4922 14.962C25.3714 15.0224 25.1501 14.9016 25.0093 14.8211C20.4417 12.3254 15.8741 9.80948 11.3267 7.31373C10.9846 7.11246 10.6224 6.93132 10.2401 6.70992C10.3005 6.60928 10.3206 6.60928 10.3407 6.58916ZM17.5039 36.9206C17.5039 37.0011 17.5039 37.0816 17.4838 37.2426C15.5119 36.1557 13.6004 35.1091 11.6888 34.0625C8.67062 32.4121 5.63228 30.7416 2.61406 29.0912C2.3726 28.9503 2.21163 28.8295 2.21163 28.4873C2.21163 23.1537 2.21163 17.82 2.21163 12.4864C2.21163 12.4059 2.21163 12.3254 2.23175 12.2046C2.35248 12.265 2.47321 12.2851 2.57381 12.3455C7.40297 15.0022 12.2522 17.659 17.1015 20.3158C17.343 20.4567 17.5241 20.5774 17.5241 20.9196C17.5039 26.2532 17.5039 31.5869 17.5039 36.9206ZM18.7515 18.6452C18.5905 18.7257 18.3088 18.6654 18.1277 18.5647C14.6668 16.6929 11.226 14.7809 7.76515 12.8889C6.29629 12.0838 4.82742 11.2788 3.31831 10.4334C3.57989 10.2724 3.82134 10.1516 4.04268 10.0309C5.27009 9.34656 6.4975 8.66224 7.74503 8.01817C7.906 7.93767 8.1877 7.89741 8.32855 7.97792C13.2583 10.6749 18.1881 13.3921 23.1178 16.0891C23.138 16.1092 23.1581 16.1294 23.2184 16.2099C21.7295 17.0351 20.2405 17.8603 18.7515 18.6452Z" fill="#F20000"/>
<path d="M35.8556 19.9334C36.3989 19.9535 36.8215 20.3963 36.8215 20.9397C36.8014 21.5033 36.3386 21.9461 35.7752 21.926C35.2319 21.9058 34.8093 21.4429 34.8093 20.9196C34.8294 20.3359 35.2922 19.9133 35.8556 19.9334Z" fill="#F20000"/>
</svg>
