<svg width="57" height="40" viewBox="0 0 57 40" fill="none" xmlns="http://www.w3.org/2000/svg">
<path d="M32.8324 20.1604C22.6316 19.6119 13.3521 10.837 12.694 0C22.1051 0.592307 29.827 7.5903 32.1304 15.9045C27.9184 12.0655 22.5877 12.0655 21.3373 12.1313C26.0538 11.9778 32.8324 20.1604 32.8324 20.1604Z" fill="#F20000"/>
<path d="M56.5247 0C56.1298 9.65241 47.8156 19.1293 37.0005 20.1165C38.5361 15.4877 48.3421 7.37093 48.3421 7.37093C37.527 11.0783 36.4301 19.6119 36.3862 20.1384C37.1979 8.97235 46.4554 0.592307 56.5247 0Z" fill="#F20000"/>
<path d="M17.8931 32.5988C17.9809 32.4891 18.0467 32.4014 18.1344 32.2917C19.4726 30.5806 19.7578 28.672 18.8583 26.6977C17.937 24.7014 16.3136 23.6484 14.098 23.5826C12.672 23.5607 11.2461 23.5826 9.82018 23.5826C9.7105 23.5826 9.62275 23.6045 9.51306 23.6265V39.9917H12.7817V34.2441C13.2205 34.2441 13.6153 34.2222 13.9883 34.2441C15.1729 34.288 15.9846 35.0777 16.0504 36.2404C16.0942 36.8327 16.0723 37.4031 16.0723 37.9954V39.9917C17.1911 39.9917 18.2441 39.9917 19.3848 39.9478C19.3848 38.9387 19.341 37.9735 19.3848 36.9863C19.4287 35.341 19.0777 33.8492 17.8931 32.5988ZM16.0504 29.1327C15.9407 30.1418 15.129 30.9097 14.1199 30.9535C13.7031 30.9755 13.2863 30.9535 12.8037 30.9535C12.8037 29.5715 12.8037 28.2552 12.8256 26.9171C13.4179 26.9171 14.0102 26.8293 14.5586 26.939C15.5458 27.1364 16.1601 28.1236 16.0504 29.1327Z" fill="#F20000"/>
<path d="M40.8617 23.6045C41.9366 23.6045 42.9896 23.6045 44.1084 23.6045C44.1084 23.8458 44.1084 24.0652 44.1084 24.2626C44.1084 26.0615 44.1303 27.8384 44.1084 29.6373C44.1084 30.0541 44.2181 30.1857 44.6349 30.1638C45.5343 30.1418 46.4118 30.1638 47.399 30.1638C47.399 29.045 47.399 27.9481 47.399 26.8512C47.399 25.7763 47.399 24.7014 47.399 23.6045C48.5178 23.6045 49.5708 23.6045 50.6457 23.6045C50.6457 29.0669 50.6457 34.5293 50.6457 39.9917C49.5708 39.9917 48.5178 39.9917 47.399 39.9917C47.399 37.8199 47.399 35.67 47.399 33.4763C46.3021 33.4763 45.2491 33.4763 44.1084 33.4763C44.1084 35.6262 44.1084 37.7979 44.1084 39.9917C42.9896 39.9917 41.9366 39.9917 40.8397 39.9917C40.8617 34.5293 40.8617 29.1108 40.8617 23.6045Z" fill="#F20000"/>
<path d="M30.0905 35.4726C31.1435 35.4726 32.1965 35.4726 33.3153 35.4726C33.3372 35.5384 33.3592 35.6481 33.3811 35.7359C33.5786 36.3501 34.0612 36.723 34.6315 36.723C35.1361 36.723 35.6407 36.372 35.8162 35.8894C36.0355 35.341 35.86 34.7706 35.3555 34.3757C34.2147 33.4983 33.0301 32.6646 31.8894 31.7652C30.2002 30.449 29.6298 28.343 30.3757 26.4125C31.1435 24.482 33.074 23.3413 35.2019 23.5826C37.1324 23.78 38.8216 25.4253 39.1287 27.3997C39.1506 27.6191 39.1506 27.8384 39.1726 28.0797C38.0757 28.0797 37.0227 28.0797 35.9258 28.0797C35.7942 27.4874 35.4871 26.9829 34.807 26.8732C34.1928 26.7854 33.6663 27.0926 33.4469 27.641C33.2276 28.1894 33.3592 28.7598 33.8857 29.1547C35.0264 30.0322 36.1891 30.8877 37.3518 31.7652C38.8435 32.9279 39.4577 34.4635 39.1068 36.3062C38.7338 38.1709 37.5711 39.3775 35.7065 39.8601C32.8766 40.6059 29.8931 38.2586 30.0905 35.4726Z" fill="#F20000"/>
<path d="M28.3794 33.4544C27.2825 33.4544 26.2295 33.4544 25.1546 33.4544C25.1546 34.5512 25.1546 35.6042 25.1546 36.723C26.2295 36.723 27.3044 36.723 28.3794 36.723C28.3794 37.8418 28.3794 38.8948 28.3794 39.9917C26.2076 39.9917 24.0358 39.9917 21.842 39.9917C21.842 34.5293 21.842 29.0888 21.842 23.6045C24.0138 23.6045 26.1637 23.6045 28.3574 23.6045C28.3574 24.6575 28.3574 25.7105 28.3574 26.8512C27.3044 26.8512 26.2295 26.8512 25.1326 26.8512C25.1326 27.97 25.1326 29.023 25.1326 30.1418C26.2076 30.1418 27.2606 30.1418 28.3574 30.1418C28.3794 31.2606 28.3794 32.3136 28.3794 33.4544Z" fill="#F20000"/>
<path d="M6.99047 26.8732C5.89361 26.8732 4.84062 26.8732 3.76569 26.8732C3.76569 27.97 3.76569 29.023 3.76569 30.1418C4.84062 30.1418 5.89361 30.1418 6.99047 30.1418C6.99047 31.2606 6.99047 32.3136 6.99047 33.4324C5.91555 33.4324 4.86256 33.4324 3.74375 33.4324C3.74375 35.6481 3.74375 37.7979 3.74375 39.9917C2.62495 39.9917 1.57196 39.9917 0.475098 39.9917C0.475098 34.5293 0.475098 29.0888 0.475098 23.6045C2.64689 23.6045 4.79674 23.6045 6.99047 23.6045C6.99047 24.6794 6.99047 25.7324 6.99047 26.8732Z" fill="#F20000"/>
</svg>
