<svg width="17" height="16" viewBox="0 0 17 16" fill="none" xmlns="http://www.w3.org/2000/svg">
<g clip-path="url(#clip0_9_93669)">
<path d="M8.02342 1.33337C5.44342 1.33337 3.35675 3.42004 3.35675 6.00004C3.35675 9.50004 8.02342 14.6667 8.02342 14.6667C8.02342 14.6667 12.6901 9.50004 12.6901 6.00004C12.6901 3.42004 10.6034 1.33337 8.02342 1.33337ZM4.69008 6.00004C4.69008 4.16004 6.18342 2.66671 8.02342 2.66671C9.86342 2.66671 11.3568 4.16004 11.3568 6.00004C11.3568 7.92004 9.43675 10.7934 8.02342 12.5867C6.63675 10.8067 4.69008 7.90004 4.69008 6.00004Z" fill="white"/>
<path d="M8.02342 7.66671C8.94389 7.66671 9.69008 6.92052 9.69008 6.00004C9.69008 5.07957 8.94389 4.33337 8.02342 4.33337C7.10294 4.33337 6.35675 5.07957 6.35675 6.00004C6.35675 6.92052 7.10294 7.66671 8.02342 7.66671Z" fill="white"/>
</g>
<defs>
<clipPath id="clip0_9_93669">
<rect width="16" height="16" fill="white" transform="translate(0.0234375)"/>
</clipPath>
</defs>
</svg>
