<svg width="14" height="14" viewBox="0 0 14 14" fill="none" xmlns="http://www.w3.org/2000/svg">
<g clip-path="url(#clip0_14_110)">
<path d="M9.77344 1.5H4.27344C2.75465 1.5 1.52344 2.73122 1.52344 4.25V9.75C1.52344 11.2688 2.75465 12.5 4.27344 12.5H9.77344C11.2922 12.5 12.5234 11.2688 12.5234 9.75V4.25C12.5234 2.73122 11.2922 1.5 9.77344 1.5Z" stroke="white" stroke-linecap="round" stroke-linejoin="round"/>
<path d="M9.22344 6.65354C9.29131 7.11128 9.21313 7.57876 9 7.9895C8.78688 8.40024 8.44967 8.73332 8.03633 8.94137C7.62299 9.14941 7.15458 9.22182 6.69772 9.14831C6.24085 9.07479 5.8188 8.85909 5.4916 8.53188C5.16439 8.20468 4.94869 7.78263 4.87517 7.32576C4.80166 6.8689 4.87407 6.40049 5.08211 5.98715C5.29016 5.57381 5.62324 5.2366 6.03398 5.02348C6.44472 4.81035 6.9122 4.73217 7.36994 4.80004C7.83684 4.86928 8.2691 5.08685 8.60287 5.42061C8.93663 5.75438 9.1542 6.18664 9.22344 6.65354Z" stroke="white" stroke-linecap="round" stroke-linejoin="round"/>
<path d="M10.0484 3.97498H10.0539" stroke="white" stroke-linecap="round" stroke-linejoin="round"/>
</g>
<defs>
<clipPath id="clip0_14_110">
<rect width="13.2" height="13.2" fill="white" transform="translate(0.423431 0.400024)"/>
</clipPath>
</defs>
</svg>
