<svg width="25" height="24" viewBox="0 0 25 24" fill="none" xmlns="http://www.w3.org/2000/svg">
<g clip-path="url(#clip0_14_79)">
<path d="M12.5 6.00001C16.29 6.00001 19.67 8.13001 21.32 11.5C20.73 12.72 19.9 13.77 18.91 14.62L20.32 16.03C21.71 14.8 22.81 13.26 23.5 11.5C21.77 7.11001 17.5 4.00001 12.5 4.00001C11.23 4.00001 10.01 4.20001 8.86 4.57001L10.51 6.22001C11.16 6.09001 11.82 6.00001 12.5 6.00001ZM11.43 7.14001L13.5 9.21001C14.07 9.46001 14.53 9.92001 14.78 10.49L16.85 12.56C16.93 12.22 16.99 11.86 16.99 11.49C17 9.01001 14.98 7.00001 12.5 7.00001C12.13 7.00001 11.78 7.05001 11.43 7.14001ZM2.51 3.87001L5.19 6.55001C3.56 7.83001 2.27 9.53001 1.5 11.5C3.23 15.89 7.5 19 12.5 19C14.02 19 15.48 18.71 16.82 18.18L20.24 21.6L21.65 20.19L3.92 2.45001L2.51 3.87001ZM10.01 11.37L12.62 13.98C12.58 13.99 12.54 14 12.5 14C11.12 14 10 12.88 10 11.5C10 11.45 10.01 11.42 10.01 11.37V11.37ZM6.61 7.97001L8.36 9.72001C8.13 10.27 8 10.87 8 11.5C8 13.98 10.02 16 12.5 16C13.13 16 13.73 15.87 14.27 15.64L15.25 16.62C14.37 16.86 13.45 17 12.5 17C8.71 17 5.33 14.87 3.68 11.5C4.38 10.07 5.4 8.89001 6.61 7.97001Z" fill="#0D0F11"/>
</g>
<defs>
<clipPath id="clip0_14_79">
<rect width="24" height="24" fill="white" transform="translate(0.5)"/>
</clipPath>
</defs>
</svg>
