<svg width="132" height="27" viewBox="0 0 132 27" fill="none" xmlns="http://www.w3.org/2000/svg">
<g clip-path="url(#clip0_9_93522)">
<path fill-rule="evenodd" clip-rule="evenodd" d="M19.4809 0.0819273H27.3532L26.5001 3.66768H26.5102L21.1499 26.2532L0.0412064 26.2621L0.676941 25.1522L1.4221 23.7722L2.90317 21.007H14.5491L19.4824 0.0819273H19.4809ZM52.9313 0.0834272L84.8136 0.0661774L83.0151 1.79268H75.0711L74.0515 2.76167H82.0064L81.1102 3.62043H81.1132L80.5415 4.16868H72.4958L71.4863 5.13467H79.5313L77.3404 7.22717H68.5634L63.6378 26.2539H55.9628L56.7742 22.8714H56.7804L60.866 7.22793H48.8834L52.9321 0.0826769L52.9313 0.0834272ZM34.4063 20.6034C37.2151 23.5419 42.0567 20.6034 42.0567 20.6034L37.0295 14.8479C36.7165 15.2064 31.5952 17.6657 34.4056 20.6027L34.4063 20.6034ZM49.2055 20.7242L53.9099 26.2464H46.782L45.2724 24.6804C41.5952 26.3604 37.6397 26.3604 37.6397 26.3604C31.6992 26.4714 28.7086 23.7962 28.7086 23.7962C22.7505 17.0874 33.3437 10.7694 33.3437 10.7694C29.7852 6.93393 30.6159 3.31293 30.6159 3.31293C31.3779 0.098427 31.3695 0.0751774 31.3695 0.0751774H48.9088L44.7908 7.27218C44.7631 7.22943 44.8941 5.88843 44.8647 5.85017C44.9842 4.32617 43.2735 3.55743 41.5359 3.55743C39.4445 3.55743 37.7476 5.16243 37.6968 7.15743C37.6829 7.27742 37.679 7.39968 37.6891 7.52268C37.6984 7.66217 37.7276 7.80767 37.7639 7.95468C37.8709 8.47368 38.089 8.95218 38.3919 9.36768C40.2759 12.4577 45.2732 16.1057 45.2732 16.1057C45.9575 15.9857 46.7096 11.9094 46.7096 11.9094L52.1384 13.4072C51.6398 17.4864 49.2055 20.7242 49.2055 20.7242ZM78.0617 21.8927H74.2473L73.7557 24.3789H78.0301L77.6641 26.2539H71.1026L73.1353 15.9736H79.4749L79.0936 17.8494H75.058L74.6141 20.047H78.4262L78.0617 21.8919V21.8927ZM84.7982 26.2547L84.0669 24.1816C83.8612 23.5554 83.687 23.0672 83.496 22.4266H83.4651C83.1153 23.0064 82.8285 23.5247 82.3686 24.2567L81.1124 26.2547H78.3654L82.3686 21.007L80.4929 15.9736H82.9079L83.5591 17.941C83.7495 18.5829 83.8936 19.0396 84.0523 19.6502H84.0992C84.4969 18.9482 84.7667 18.4591 85.1164 17.9109L86.3564 15.9736H89.0889L85.1796 21.0234L87.2294 26.2547H84.7982ZM91.6796 20.764C91.9185 20.8089 92.1712 20.8389 92.5527 20.8389C93.9359 20.8389 94.8412 19.9846 94.8412 18.9639C94.8412 17.9724 94.0945 17.6514 93.2053 17.6514C92.7762 17.6514 92.4733 17.6814 92.2829 17.7279L91.6796 20.764ZM90.3441 16.1709C91.0277 16.0037 92.1087 15.8964 93.1414 15.8964C94.0945 15.8964 95.2066 16.0502 95.9849 16.5834C96.6992 17.0559 97.1454 17.7744 97.1454 18.7652C97.1454 20.0627 96.525 21.0376 95.6828 21.6632C94.8097 22.3201 93.5713 22.6097 92.2675 22.6097C91.8861 22.6097 91.5678 22.5797 91.3297 22.5481L90.5984 26.2547H88.3583L90.3441 16.1709ZM100.722 20.5494H101.674C102.913 20.5494 103.819 19.8332 103.819 18.8259C103.819 18.0024 103.087 17.6356 102.183 17.6356C101.753 17.6356 101.483 17.6664 101.293 17.7122L100.722 20.5494ZM99.3377 16.1717C100.054 16.0044 101.135 15.8972 102.198 15.8972C103.215 15.8972 104.265 16.0502 105.011 16.4934C105.71 16.8887 106.203 17.5449 106.203 18.5057C106.203 20.0319 105.138 20.9769 103.771 21.4044V21.466C104.407 21.7254 104.677 22.411 104.788 23.341C104.914 24.4854 105.011 25.8286 105.202 26.2547H102.85C102.755 25.9809 102.643 25.096 102.532 23.8292C102.437 22.5789 101.992 22.1971 101.087 22.1971H100.388L99.5919 26.2547H97.3211L99.3377 16.1717ZM113.544 21.8927H109.731L109.238 24.3789H113.511L113.147 26.2539H106.586L108.619 15.9736H114.959L114.577 17.8494H110.541L110.097 20.047H113.908L113.544 21.8919V21.8927ZM115.259 23.7587C115.892 24.1247 116.795 24.4142 117.778 24.4142C118.665 24.4142 119.473 24.0189 119.473 23.2111C119.473 22.6337 119.013 22.2542 118.031 21.7674C116.889 21.1734 115.813 20.3814 115.813 19.0434C115.813 16.9741 117.7 15.7112 120.027 15.7112C121.327 15.7112 122.087 15.9857 122.547 16.2287L121.833 18.0541C121.484 17.8727 120.725 17.5832 119.838 17.5982C118.777 17.5982 118.221 18.1157 118.221 18.6782C118.221 19.2722 118.871 19.6359 119.773 20.1234C121.074 20.7767 121.897 21.6145 121.897 22.8309C121.897 25.1139 119.932 26.284 117.556 26.284C116.066 26.284 115.006 25.9195 114.497 25.555L115.259 23.7587ZM123.019 23.7587C123.652 24.1247 124.555 24.4142 125.537 24.4142C126.425 24.4142 127.233 24.0189 127.233 23.2111C127.233 22.6337 126.773 22.2542 125.791 21.7674C124.65 21.1734 123.573 20.3814 123.573 19.0434C123.573 16.9741 125.459 15.7112 127.787 15.7112C129.086 15.7112 129.847 15.9857 130.306 16.2287L129.594 18.0541C129.245 17.8727 128.485 17.5832 127.597 17.5982C126.536 17.5982 125.98 18.1157 125.98 18.6782C125.98 19.2722 126.631 19.6359 127.535 20.1234C128.833 20.7767 129.657 21.6145 129.657 22.8309C129.657 25.1139 127.692 26.284 125.317 26.284C123.826 26.284 122.765 25.9195 122.258 25.555L123.019 23.7587Z" fill="white"/>
</g>
<defs>
<clipPath id="clip0_9_93522">
<rect width="131" height="27" fill="white" transform="translate(0.0234375)"/>
</clipPath>
</defs>
</svg>
