<svg width="154" height="31" viewBox="0 0 154 31" fill="none" xmlns="http://www.w3.org/2000/svg">
<g clip-path="url(#clip0_9_93636)">
<path fill-rule="evenodd" clip-rule="evenodd" d="M22.7485 0.094011H31.9429L30.9466 4.21098H30.9583L24.6979 30.1425L0.0441895 30.1528L0.786689 28.8784L1.65699 27.294L3.38678 24.1191H16.9885L22.7503 0.094011H22.7485ZM61.8166 0.0957331L99.0531 0.0759277L96.9526 2.0582H87.6745L86.4837 3.17076H95.7745L94.7278 4.15673H94.7313L94.0636 4.7862H84.6667L83.4877 5.89531H92.8837L90.3249 8.29781H80.074L74.3211 30.1433H65.3572L66.3049 26.2597H66.3121L71.0838 8.29868H57.0889L61.8175 0.0948716L61.8166 0.0957331ZM40.1806 23.6557C43.4611 27.0296 49.1158 23.6557 49.1158 23.6557L43.2442 17.0476C42.8787 17.4591 36.8974 20.2827 40.1797 23.6549L40.1806 23.6557ZM57.4651 23.7944L62.9595 30.1347H54.6346L52.8715 28.3367C48.5767 30.2656 43.9569 30.2656 43.9569 30.2656C37.0188 30.3931 33.526 27.3215 33.526 27.3215C26.5672 19.6188 38.9394 12.3648 38.9394 12.3648C34.7833 7.96113 35.7535 3.80368 35.7535 3.80368C36.6435 0.112955 36.6337 0.0862611 36.6337 0.0862611H57.1186L52.309 8.34948C52.2766 8.3004 52.4296 6.76073 52.3953 6.71681C52.5349 4.96703 50.5368 4.0844 48.5074 4.0844C46.0648 4.0844 44.083 5.92718 44.0236 8.21773C44.0074 8.35551 44.0028 8.49588 44.0146 8.6371C44.0254 8.79726 44.0596 8.96431 44.102 9.1331C44.227 9.72898 44.4817 10.2784 44.8354 10.7554C47.0359 14.3032 52.8724 18.4917 52.8724 18.4917C53.6716 18.3539 54.55 13.6737 54.55 13.6737L60.8905 15.3934C60.3082 20.0769 57.4651 23.7944 57.4651 23.7944ZM91.1674 25.136H86.7123L86.1382 27.9906H91.1305L90.703 30.1433H83.0395L85.4137 18.34H92.8179L92.3725 20.4937H87.6592L87.1407 23.0168H91.593L91.1674 25.1351V25.136ZM99.0352 30.1442L98.181 27.764C97.9408 27.0451 97.7373 26.4845 97.5143 25.749H97.4781C97.0696 26.4147 96.7347 27.0097 96.1975 27.8502L94.7304 30.1442H91.522L96.1975 24.1191L94.0069 18.34H96.8274L97.588 20.5988C97.8103 21.3359 97.9786 21.8603 98.164 22.5612H98.2188C98.6833 21.7552 98.9983 21.1938 99.4069 20.5643L100.855 18.34H104.046L99.4806 24.1379L101.875 30.1442H99.0352ZM107.072 23.8401C107.351 23.8916 107.646 23.9261 108.092 23.9261C109.707 23.9261 110.765 22.9453 110.765 21.7733C110.765 20.6349 109.893 20.2664 108.854 20.2664C108.353 20.2664 107.999 20.3008 107.777 20.3542L107.072 23.8401ZM105.512 18.5666C106.311 18.3745 107.573 18.2514 108.779 18.2514C109.893 18.2514 111.192 18.428 112.101 19.0401C112.935 19.5826 113.456 20.4076 113.456 21.5452C113.456 23.0349 112.731 24.1543 111.748 24.8725C110.728 25.6268 109.282 25.9592 107.759 25.9592C107.313 25.9592 106.942 25.9247 106.664 25.8885L105.809 30.1442H103.193L105.512 18.5666ZM117.633 23.5937H118.745C120.192 23.5937 121.25 22.7714 121.25 21.6149C121.25 20.6694 120.396 20.2483 119.339 20.2483C118.838 20.2483 118.522 20.2836 118.301 20.3362L117.633 23.5937ZM116.016 18.5675C116.853 18.3754 118.115 18.2522 119.357 18.2522C120.545 18.2522 121.771 18.428 122.642 18.9368C123.458 19.3907 124.035 20.1441 124.035 21.2472C124.035 22.9996 122.791 24.0846 121.194 24.5754V24.6461C121.937 24.9439 122.253 25.7311 122.382 26.7988C122.529 28.1128 122.642 29.655 122.865 30.1442H120.119C120.008 29.8299 119.877 28.8138 119.747 27.3594C119.636 25.9239 119.116 25.4855 118.059 25.4855H117.243L116.313 30.1442H113.661L116.016 18.5675ZM132.609 25.136H128.155L127.58 27.9906H132.57L132.145 30.1433H124.482L126.856 18.34H134.261L133.815 20.4937H129.101L128.583 23.0168H133.034L132.609 25.1351V25.136ZM134.611 27.2785C135.351 27.6987 136.405 28.031 137.553 28.031C138.589 28.031 139.533 27.5772 139.533 26.6498C139.533 25.9867 138.996 25.551 137.849 24.9921C136.515 24.3101 135.258 23.4008 135.258 21.8646C135.258 19.4888 137.462 18.0387 140.181 18.0387C141.699 18.0387 142.587 18.3539 143.123 18.6329L142.29 20.7288C141.882 20.5205 140.995 20.188 139.96 20.2052C138.72 20.2052 138.071 20.7995 138.071 21.4452C138.071 22.1272 138.83 22.5449 139.884 23.1046C141.403 23.8547 142.364 24.8166 142.364 26.2132C142.364 28.8344 140.069 30.1778 137.295 30.1778C135.554 30.1778 134.316 29.7593 133.722 29.3408L134.611 27.2785ZM143.675 27.2785C144.414 27.6987 145.469 28.031 146.616 28.031C147.653 28.031 148.597 27.5772 148.597 26.6498C148.597 25.9867 148.059 25.551 146.913 24.9921C145.58 24.3101 144.322 23.4008 144.322 21.8646C144.322 19.4888 146.524 18.0387 149.243 18.0387C150.761 18.0387 151.649 18.3539 152.185 18.6329L151.354 20.7288C150.947 20.5205 150.059 20.188 149.022 20.2052C147.782 20.2052 147.134 20.7995 147.134 21.4452C147.134 22.1272 147.893 22.5449 148.949 23.1046C150.466 23.8547 151.428 24.8166 151.428 26.2132C151.428 28.8344 149.133 30.1778 146.358 30.1778C144.618 30.1778 143.378 29.7593 142.786 29.3408L143.675 27.2785Z" fill="white"/>
</g>
<defs>
<clipPath id="clip0_9_93636">
<rect width="153" height="31" fill="white" transform="translate(0.0234375)"/>
</clipPath>
</defs>
</svg>
