<svg width="12" height="10" viewBox="0 0 12 10" fill="none" xmlns="http://www.w3.org/2000/svg">
<path fill-rule="evenodd" clip-rule="evenodd" d="M11.9007 3.76047C11.9271 2.98321 11.7599 2.21176 11.4146 1.51776C11.1803 1.233 10.8551 1.04082 10.4957 0.974732C9.0093 0.837631 7.51673 0.781438 6.0244 0.806393C4.53751 0.780305 3.05031 0.834685 1.56911 0.969302C1.27626 1.02345 1.00526 1.16308 0.789162 1.37114C0.308374 1.82186 0.254953 2.59296 0.201532 3.24459C0.124025 4.41621 0.124025 5.5918 0.201532 6.76342C0.216987 7.13019 0.270709 7.49425 0.361795 7.84948C0.426207 8.12375 0.556526 8.3775 0.741083 8.588C0.958649 8.80709 1.23597 8.95466 1.53705 9.01157C2.68876 9.15608 3.84922 9.21596 5.00941 9.19077C6.87914 9.21792 8.51915 9.19077 10.4583 9.03872C10.7668 8.98531 11.0519 8.83755 11.2757 8.61515C11.4252 8.46306 11.5369 8.2769 11.6015 8.07212C11.7926 7.47621 11.8864 6.85254 11.8793 6.22583C11.9007 5.92173 11.9007 4.08629 11.9007 3.76047ZM4.81703 6.55165V3.1903L7.97954 4.87912C7.09275 5.3787 5.92284 5.94345 4.81703 6.55165Z" fill="white"/>
</svg>
