<svg width="607" height="201" viewBox="0 0 607 201" fill="none" xmlns="http://www.w3.org/2000/svg">
<path opacity="0.3" d="M158.83 48.3268C202.099 58.542 240.661 72.7463 279.486 86.4118C318.311 100.121 359.05 113.191 405.894 119.66C440.57 124.431 477.344 125.415 513.944 126.193C542.807 126.831 575.584 127.013 595.899 137.581C603.105 141.367 608.132 146.811 604.9 152.322C602.017 157.288 592.877 161.199 583.308 163.175C559.907 167.954 528.869 167.84 504.958 168.73C477.307 169.804 449.833 170.126 422.359 170.144C345.763 170.146 269.089 167.279 198.785 155.748C153.943 148.416 111.025 137.178 75.8558 122.114C43.3782 108.236 17.2586 90.3121 4.88471 69.1992C-0.566867 59.9483 -4.60991 44.4264 18.1867 38.0292C45.9429 30.1975 94.352 36.4844 119.815 40.5531C133.285 42.695 146.232 45.3478 158.83 48.3268Z" fill="#F20000"/>
</svg>
