<svg width="625" height="99" viewBox="0 0 625 99" fill="none" xmlns="http://www.w3.org/2000/svg">
<g style="mix-blend-mode:overlay" opacity="0.3">
<path d="M151.223 38.6581C180.653 48.8521 210.153 59.0466 239.583 69.2407C256.866 75.2388 274.289 81.2378 293.946 85.6357C328.381 93.3322 367.853 95.6045 406.529 96.5301C442.889 97.4099 479.639 97.1643 515.163 93.8008C550.335 90.4654 591.064 84.9106 614.339 72.2285C619.209 69.5776 623.479 66.0082 620.215 62.9073C612.328 55.4163 574.662 57.7596 560.516 58.4895C536.306 59.7324 512.876 62.7793 489.119 65.1228C453.449 68.6378 414.533 70.546 381.689 63.5612C370.951 61.2648 360.678 57.7214 357.481 52.7003C352.291 44.4343 368.799 36.4333 386.562 32.7088C415.578 26.6195 449.07 27.1451 480.187 29.2709C518.313 31.8697 569.718 40.4402 606.218 31.2599C615.148 29.0321 622.936 25.3029 623.723 20.8569C625.402 11.0203 600.469 6.83153 582.532 5.4938C524.724 1.21039 465.524 4.60081 407.066 6.86806C306.33 10.747 204.944 11.146 104.029 8.1029C70.2034 7.08731 36.4756 7.29189 3.049 6.91918C55.7032 3.88197 113.464 25.5738 151.223 38.6581Z" fill="#F20000"/>
</g>
</svg>
